# Blender 5.2.2 LTS
# www.blender.org
mtllib ak mag.mtl
o AK.002
v -1.274765 -20.044127 -15.430274
v -1.274765 -23.209923 -10.438252
v -1.274765 -17.778191 -8.030802
v -1.274765 -15.529222 -13.155891
v -0.393301 -20.044127 -15.430274
v 0.685755 -20.044127 -15.430274
v 0.685755 -23.209923 -10.438252
v -0.393301 -23.209923 -10.438252
v -0.210290 -14.798575 -14.821625
v 0.502744 -14.798575 -14.821625
v 0.502744 -19.033173 -17.034414
v -0.210290 -19.033173 -17.034414
v -0.210290 1.506668 -9.488965
v 0.502744 1.506668 -9.488965
v 0.502744 1.506668 -10.889754
v -0.210290 1.506668 -10.889754
v -0.393302 1.323147 -3.580868
v 0.685754 1.323147 -3.580868
v -1.274765 -7.742231 -10.408617
v -1.274765 -10.303737 -11.182087
v -1.274765 -11.926814 -5.753966
v -1.274765 -8.984468 -4.941319
v 1.085197 -10.197038 -11.603094
v 1.085197 -9.853772 -12.888395
v 1.085197 -7.350045 -12.296436
v 1.085197 -7.660843 -10.805948
v -0.210290 -7.350045 -12.296436
v 0.502744 -7.350045 -12.296436
v 0.502744 -9.853772 -12.888395
v -0.210290 -9.853772 -12.888395
v -0.393301 -14.495373 -6.693686
v 0.685754 -14.495373 -6.693686
v 0.685754 -11.926814 -5.753966
v -0.393301 -11.926814 -5.753966
v -0.393301 -8.984468 -4.941319
v 0.685754 -8.984468 -4.941319
v 0.685754 -5.179294 -4.149251
v -0.393302 -5.179294 -4.149251
v -1.274765 -1.409174 -9.253592
v -1.274765 -4.432533 -9.755952
v -1.274766 -5.179294 -4.149251
v -1.274766 -1.726444 -3.678029
v 1.085197 -4.383647 -10.122893
v 1.085197 -4.195253 -11.537345
v 1.085197 -1.308369 -11.025071
v 1.085197 -1.388427 -9.618489
v -0.210290 -1.308369 -11.025071
v 0.502744 -1.308369 -11.025071
v 0.502744 -4.195253 -11.537345
v -0.210290 -4.195253 -11.537345
v -1.274765 -14.495373 -6.693686
v -1.274765 -12.571546 -12.039226
v 1.085197 -15.378711 -13.498985
v 1.085197 -14.798575 -14.821625
v 1.085197 -12.052186 -13.711672
v 1.085197 -12.445802 -12.426302
v -0.210290 -12.052186 -13.711672
v 0.502744 -12.052186 -13.711672
v 0.685754 -17.778191 -8.030802
v -0.393301 -17.778191 -8.030802
v 0.685754 -1.778533 -3.082289
v -0.393302 -1.778533 -3.082289
v 1.085197 1.353228 -10.899804
v 1.085197 1.347470 -9.498607
v -0.210290 1.353228 -10.899804
v 0.502744 1.353228 -10.899804
v -0.792743 -15.378711 -13.498985
v -0.792743 -19.835873 -15.760695
v 1.567219 -15.529222 -13.155857
v 1.567219 -20.044127 -15.430274
v 1.085197 -19.835873 -15.760695
v -0.210290 -19.835873 -15.760695
v 0.502744 -19.835873 -15.760695
v 0.685755 1.506668 -9.125567
v -0.393301 1.506668 -9.125567
v -0.792743 -4.383647 -10.122893
v -0.792743 -7.660843 -10.805948
v 1.567218 -4.432533 -9.755952
v 1.567218 -5.179294 -4.149251
v 1.567218 -8.984468 -4.941319
v 1.567219 -7.742231 -10.408617
v -0.792743 -1.388427 -9.618491
v 1.567218 -1.409174 -9.253592
v 1.567218 -1.726444 -3.678029
v -0.792743 -10.197038 -11.603094
v -0.792743 -12.445802 -12.426336
v 1.567219 -10.303737 -11.182087
v 1.567218 -11.926814 -5.753966
v 1.567218 -14.495373 -6.693652
v 1.567219 -12.571546 -12.039226
v -1.274765 1.345971 -9.135106
v -1.274765 1.506668 -9.125567
v -0.792743 1.506668 -9.488965
v -0.792743 1.347470 -9.498607
v 1.567218 1.345971 -9.135106
v 1.085197 1.506668 -9.488965
v 1.567218 1.506668 -9.125567
v -0.792743 -4.195253 -11.537345
v -0.792743 -7.350045 -12.296436
v -0.792743 -1.308369 -11.025071
v -0.792743 -9.853772 -12.888395
v -0.792743 -12.052186 -13.711672
v 1.567218 -17.778191 -8.030802
v -0.792743 -14.798575 -14.821625
v 1.085197 1.506668 -10.889754
v 0.685754 1.271092 -2.985128
v -0.393302 1.271092 -2.985128
v 1.567218 1.323147 -3.580868
v -0.792743 1.353228 -10.899806
v -1.274766 1.323147 -3.580868
v -0.792743 -19.033173 -17.034414
v 1.085197 -19.033173 -17.034414
v -0.792743 1.506668 -10.889754
v 1.567218 1.506669 -3.572998
v 1.567219 -23.209923 -10.438252
v 0.685754 -1.726444 -3.678029
v -0.393302 -1.726444 -3.678029
v -1.384734 -20.013058 -15.479024
v -1.384735 -23.211012 -10.188539
v 1.677189 -23.211012 -10.188537
v 1.677189 -20.013058 -15.479024
v 1.157863 -19.788691 -15.835031
v -0.865409 -19.788723 -15.835031
v 1.157863 -18.923883 -17.207338
v -0.865409 -18.923883 -17.207338
v -1.384735 -23.421993 -10.354651
v 1.677189 -23.421993 -10.354651
v 1.677189 -20.224073 -15.645104
v -1.384734 -20.224073 -15.645104
v 1.157863 -19.999704 -16.001108
v -0.865409 -19.999704 -16.001108
v 1.157863 -19.134865 -17.373419
v -0.865409 -19.134865 -17.373419
v 1.002924 0.485118 -10.465274
v 1.002924 -0.856360 -10.571326
v 1.000028 -0.884228 -9.768285
v 1.000028 0.471116 -9.661925
v 1.278905 -0.884228 -9.768285
v 1.276009 -0.855100 -10.608459
v 1.276009 0.485765 -10.502440
v 1.278905 0.471082 -9.661925
v 0.689230 0.495678 -11.196908
v 0.666677 -0.833058 -11.300849
v 0.146227 -0.831253 -11.295636
v 0.146227 0.497757 -11.189925
v 0.461829 -0.839156 -11.004325
v 0.146227 -0.841098 -11.011342
v 0.146227 0.492817 -10.905494
v 0.484381 0.494725 -10.900315
v 0.146227 1.381026 -11.189925
v 0.146227 1.376053 -10.905494
v 0.484381 1.377961 -10.900315
v 0.689230 1.378948 -11.196908
v 1.278905 1.354351 -9.661925
v 1.276009 1.369034 -10.502440
v 1.002924 1.368387 -10.465274
v 1.000028 1.354351 -9.661925
v 1.116948 0.494929 -11.028001
v 1.116948 -0.836874 -11.133780
v 0.880008 -0.845288 -10.891391
v 0.880008 0.490705 -10.785508
v 0.880008 1.373975 -10.785508
v 1.116948 1.378199 -11.028001
v 1.000028 0.878462 -9.661925
v 1.002924 0.892497 -10.465274
v 1.278905 0.878462 -9.661925
v 1.276009 0.893145 -10.502440
v 1.116948 0.902309 -11.028001
v 0.880008 0.898085 -10.785508
v 0.689230 0.903058 -11.196908
v 0.146227 0.905136 -11.189925
v 0.146227 0.900196 -10.905494
v 0.484381 0.902104 -10.900315
v -0.710470 0.485118 -10.465274
v -0.707574 0.471116 -9.661925
v -0.707574 -0.884228 -9.768285
v -0.710470 -0.856360 -10.571326
v -0.986451 -0.884228 -9.768285
v -0.986451 0.471116 -9.661925
v -0.983555 0.485765 -10.502440
v -0.983555 -0.855100 -10.608459
v -0.396776 0.495678 -11.196908
v -0.374223 -0.833058 -11.300849
v -0.169375 -0.839156 -11.004325
v -0.191928 0.494725 -10.900315
v -0.396776 1.378948 -11.196908
v -0.191928 1.377961 -10.900315
v -0.986451 1.354351 -9.661927
v -0.707574 1.354351 -9.661925
v -0.710470 1.368387 -10.465274
v -0.983555 1.369034 -10.502440
v -0.824494 0.494929 -11.028001
v -0.824494 -0.836874 -11.133780
v -0.587554 -0.845288 -10.891391
v -0.587554 0.490705 -10.785508
v -0.587554 1.373975 -10.785508
v -0.824494 1.378199 -11.028001
v -0.707574 0.878462 -9.661925
v -0.710470 0.892497 -10.465274
v -0.986451 0.878462 -9.661925
v -0.983555 0.893145 -10.502440
v -0.824494 0.902309 -11.028001
v -0.587554 0.898085 -10.785508
v -0.396776 0.903058 -11.196908
v -0.191928 0.902104 -10.900315
vn -1.0000 -0.0000 -0.0000
vn -0.0000 -0.8452 -0.5344
vn -0.0000 -0.8445 -0.5356
vn -0.0000 0.4194 -0.9078
vn -0.0000 0.4631 -0.8863
vn -0.0000 1.0000 -0.0000
vn 1.0000 -0.0000 -0.0000
vn -0.0000 0.2320 -0.9727
vn -0.0000 0.2910 -0.9567
vn -0.0000 -0.3605 0.9328
vn -0.0000 -0.3052 0.9523
vn -0.0000 -0.2351 0.9720
vn -0.0000 -0.2109 0.9775
vn -0.0000 0.1111 -0.9938
vn -0.0000 0.2044 -0.9789
vn -0.0000 0.3627 -0.9319
vn -0.0000 -0.4052 0.9142
vn -0.0000 -0.3913 0.9203
vn -0.0000 -0.1671 0.9859
vn -0.0000 0.0562 -0.9984
vn -0.5446 0.3372 -0.7679
vn -0.5475 0.3360 -0.7664
vn -0.5572 0.3758 -0.7405
vn -0.5559 0.3760 -0.7414
vn 0.5469 0.3333 -0.7680
vn 0.5560 0.3760 -0.7413
vn 0.5572 0.3758 -0.7405
vn 0.5451 0.3332 -0.7693
vn -0.0000 -0.8460 -0.5332
vn -0.5706 0.2015 -0.7961
vn -0.5389 0.1511 -0.8287
vn -0.5402 0.1521 -0.8276
vn -0.5752 0.2032 -0.7924
vn -0.5330 0.0869 -0.8416
vn -0.5333 0.0887 -0.8412
vn -0.5744 0.2826 -0.7682
vn -0.5960 0.2610 -0.7594
vn -0.5962 0.2624 -0.7587
vn -0.5744 0.2813 -0.7687
vn -0.5310 0.0438 -0.8462
vn -0.5305 0.0502 -0.8462
vn -0.5307 0.0511 -0.8460
vn -0.5309 0.0440 -0.8463
vn 0.5706 0.2015 -0.7961
vn 0.5752 0.2032 -0.7924
vn 0.5402 0.1521 -0.8277
vn 0.5377 0.1513 -0.8295
vn 0.5335 0.0890 -0.8411
vn 0.5328 0.0872 -0.8417
vn 0.5765 0.2854 -0.7656
vn 0.5722 0.2853 -0.7689
vn 0.5962 0.2624 -0.7588
vn 0.5960 0.2610 -0.7594
vn 0.5308 0.0435 -0.8464
vn 0.5311 0.0437 -0.8462
vn 0.5307 0.0511 -0.8460
vn 0.5305 0.0502 -0.8462
vn -0.0000 0.0654 -0.9979
vn -0.0000 -0.0318 0.9995
vn -0.0000 -0.8457 -0.5336
vn -0.0000 -0.1696 0.9855
vn -0.0000 -0.0836 0.9965
vn -0.0000 -0.0392 0.9992
vn -0.0000 -0.0374 0.9993
vn -0.0000 0.9962 0.0870
vn -0.0000 0.8558 0.5173
vn -0.0000 0.8460 0.5332
vn -0.0000 -0.6186 0.7857
vn 0.5567 0.5138 -0.6527
vn -0.5567 0.5138 -0.6527
vn -0.0000 0.6185 -0.7858
vn -0.0000 -0.8558 -0.5173
vn -0.9783 -0.0081 0.2071
vn -0.9759 -0.0172 0.2177
vn -1.0000 0.0003 -0.0043
vn -1.0000 0.0002 -0.0045
vn 1.0000 0.0003 -0.0038
vn 0.9836 0.0143 -0.1800
vn 0.9852 0.0067 -0.1714
vn 1.0000 0.0002 -0.0041
vn -0.0001 -0.9994 -0.0347
vn -0.0000 -0.9994 -0.0346
vn -0.0000 -0.0391 0.9992
vn -0.0000 -0.0782 0.9969
vn 0.1533 0.0768 -0.9852
vn 0.1421 0.0747 -0.9870
vn -0.0000 0.0787 -0.9969
vn -0.0000 -0.9996 -0.0297
vn -0.0028 -0.9996 -0.0267
vn -0.0024 -0.9997 -0.0263
vn -0.0000 -0.9994 -0.0347
vn -0.0000 -0.0783 0.9969
vn -0.0000 -0.0791 0.9969
vn -0.1171 -0.0756 0.9902
vn -0.1244 -0.0770 0.9892
vn -0.0000 0.9999 0.0129
vn -0.0000 0.9998 0.0175
vn 0.0027 1.0000 0.0090
vn 0.0027 1.0000 0.0094
vn 0.9397 0.0137 -0.3417
vn 0.9396 0.0271 -0.3411
vn -0.2228 -0.0726 0.9722
vn -0.2345 -0.0768 0.9691
vn -0.0006 -0.9995 -0.0318
vn 0.0011 -0.9994 -0.0331
vn 0.0005 0.9999 0.0144
vn -0.0014 0.9999 0.0158
vn 0.3113 0.0752 -0.9473
vn 0.2987 0.0708 -0.9517
vn -0.9079 -0.0167 0.4188
vn -0.9078 -0.0331 0.4181
vn -1.0000 -0.0000 -0.0036
vn -0.9772 -0.0000 0.2124
vn -0.0000 -0.0000 1.0000
vn 1.0000 -0.0000 -0.0038
vn 0.9844 -0.0000 -0.1757
vn 0.9397 -0.0000 -0.3420
vn -0.9079 -0.0000 0.4191
vn -0.9767 -0.0000 0.2147
vn 1.0000 -0.0000 -0.0034
vn 0.9841 -0.0000 -0.1775
vn 0.1530 0.0001 -0.9882
vn 0.1525 -0.0000 -0.9883
vn 0.3120 -0.0000 -0.9501
vn 0.3120 0.0001 -0.9501
vn -0.0000 -0.0000 -1.0000
vn -0.1246 -0.0002 0.9922
vn -0.1243 -0.0000 0.9922
vn -0.2346 -0.0000 0.9721
vn -0.0000 -0.9998 -0.0175
vn -0.0013 -0.9999 -0.0109
vn 0.0010 -1.0000 -0.0024
vn -0.0000 -0.9999 -0.0124
vn -0.0006 -0.9999 -0.0119
vn 0.0031 -0.9999 -0.0138
vn -0.6481 0.0011 -0.7615
vn -0.6482 -0.0000 -0.7615
vn -0.6481 -0.0000 -0.7615
vn 0.0003 0.9999 0.0119
vn -0.0031 0.9999 0.0138
vn 0.0028 1.0000 0.0089
vn 0.9783 -0.0081 0.2071
vn 1.0000 0.0002 -0.0045
vn 1.0000 0.0003 -0.0045
vn 0.9759 -0.0172 0.2177
vn -1.0000 0.0002 -0.0049
vn -0.9852 0.0067 -0.1714
vn -0.9836 0.0143 -0.1800
vn 0.0001 -0.9994 -0.0347
vn -0.1533 0.0768 -0.9852
vn -0.1421 0.0747 -0.9870
vn 0.0025 -0.9997 -0.0262
vn 0.0029 -0.9996 -0.0266
vn 0.1244 -0.0770 0.9892
vn 0.1171 -0.0756 0.9902
vn -0.0028 1.0000 0.0093
vn -0.0028 1.0000 0.0089
vn -0.9397 0.0137 -0.3417
vn -0.9396 0.0271 -0.3411
vn 0.2228 -0.0726 0.9722
vn 0.2345 -0.0768 0.9691
vn 0.0006 -0.9995 -0.0318
vn -0.0011 -0.9994 -0.0331
vn -0.0002 0.9999 0.0144
vn 0.0011 0.9999 0.0156
vn -0.2987 0.0702 -0.9518
vn -0.3113 0.0752 -0.9473
vn 0.9078 -0.0331 0.4181
vn 0.9079 -0.0167 0.4188
vn 1.0000 -0.0000 -0.0036
vn 0.9772 -0.0000 0.2124
vn -1.0000 -0.0000 -0.0042
vn -0.9844 -0.0000 -0.1757
vn -0.9397 -0.0000 -0.3420
vn 0.9079 -0.0000 0.4191
vn 0.9767 -0.0000 0.2147
vn -1.0000 -0.0000 -0.0034
vn -0.9841 -0.0000 -0.1775
vn -0.1530 -0.0000 -0.9882
vn -0.3120 -0.0000 -0.9501
vn -0.3120 0.0001 -0.9501
vn -0.1525 0.0001 -0.9883
vn 0.1243 -0.0002 0.9922
vn 0.1246 -0.0000 0.9922
vn 0.2346 -0.0000 0.9721
vn -0.0010 -1.0000 -0.0024
vn 0.0013 -0.9999 -0.0109
vn 0.0004 -0.9999 -0.0119
vn -0.0031 -0.9999 -0.0138
vn 0.6482 -0.0000 -0.7615
vn 0.6481 0.0011 -0.7615
vn -0.0029 1.0000 0.0092
vn 0.0031 0.9999 0.0138
vn -0.0004 0.9999 0.0119
vt 0.230600 0.549700
vt 0.168500 0.549700
vt 0.168500 0.491000
vt 0.230600 0.491000
vt 0.336100 0.876400
vt 0.336100 0.888400
vt 0.270600 0.888400
vt 0.270600 0.876400
vt 0.037000 0.491000
vt 0.045300 0.491000
vt 0.045300 0.549700
vt 0.037000 0.549700
vt 0.204700 0.913600
vt 0.204700 0.921500
vt 0.189200 0.921500
vt 0.189200 0.913600
vt 0.230600 0.397200
vt 0.230600 0.427600
vt 0.168500 0.427600
vt 0.168500 0.397200
vt 0.068400 0.427600
vt 0.052100 0.427600
vt 0.052100 0.397200
vt 0.068400 0.397200
vt 0.037000 0.397200
vt 0.045300 0.397200
vt 0.045300 0.427600
vt 0.037000 0.427600
vt 0.159000 0.455200
vt 0.147500 0.455200
vt 0.147500 0.427600
vt 0.159000 0.427600
vt 0.159000 0.397200
vt 0.147500 0.397200
vt 0.147500 0.358800
vt 0.159000 0.358800
vt 0.230600 0.322100
vt 0.230600 0.358800
vt 0.168500 0.358800
vt 0.168500 0.322100
vt 0.068400 0.358800
vt 0.052100 0.358800
vt 0.052100 0.324700
vt 0.068400 0.324700
vt 0.037000 0.324700
vt 0.045300 0.324700
vt 0.045300 0.358800
vt 0.037000 0.358800
vt 0.168500 0.455200
vt 0.230600 0.455200
vt 0.068400 0.491000
vt 0.052100 0.491000
vt 0.052100 0.455200
vt 0.068400 0.455200
vt 0.037000 0.455200
vt 0.045300 0.455200
vt 0.159000 0.549700
vt 0.147500 0.549700
vt 0.147500 0.491000
vt 0.159000 0.491000
vt 0.449300 0.932900
vt 0.449600 0.920100
vt 0.488800 0.921600
vt 0.488700 0.933000
vt 0.052100 0.291800
vt 0.068400 0.291800
vt 0.037000 0.291800
vt 0.045300 0.291800
vt 0.237600 0.491000
vt 0.237600 0.549700
vt 0.075400 0.491000
vt 0.075400 0.549700
vt 0.068400 0.549700
vt 0.340400 0.878500
vt 0.340400 0.886400
vt 0.237600 0.358800
vt 0.237600 0.397200
vt 0.075400 0.358800
vt 0.138000 0.358800
vt 0.138000 0.397200
vt 0.075400 0.397200
vt 0.237600 0.322100
vt 0.075400 0.324700
vt 0.138000 0.324700
vt 0.237600 0.427600
vt 0.237600 0.455200
vt 0.075400 0.427600
vt 0.138000 0.427600
vt 0.138000 0.455200
vt 0.075400 0.455200
vt 0.230600 0.291800
vt 0.230600 0.289900
vt 0.237600 0.289900
vt 0.237600 0.291800
vt 0.208700 0.911600
vt 0.208700 0.923500
vt 0.075400 0.291800
vt 0.068400 0.289900
vt 0.075400 0.289900
vt 0.357100 0.878500
vt 0.357100 0.886400
vt 0.253700 0.358800
vt 0.253700 0.397200
vt 0.253700 0.322100
vt 0.253700 0.427600
vt 0.253700 0.455200
vt 0.138000 0.491000
vt 0.253700 0.491000
vt 0.052100 0.289900
vt 0.037000 0.289900
vt 0.045300 0.289900
vt 0.522100 0.921700
vt 0.521800 0.934100
vt 0.138000 0.291800
vt 0.253700 0.291800
vt 0.168500 0.291800
vt 0.253700 0.549700
vt 0.052100 0.549700
vt 0.253700 0.289900
vt 0.138000 0.289900
vt 0.138000 0.549700
vt 0.336100 0.898200
vt 0.270600 0.898200
vt 0.270600 0.866700
vt 0.336100 0.866700
vt 0.030300 0.549700
vt 0.030300 0.491000
vt 0.204700 0.928000
vt 0.189200 0.928000
vt 0.189200 0.907100
vt 0.204700 0.907100
vt 0.030300 0.427600
vt 0.030300 0.397200
vt 0.030300 0.358800
vt 0.030300 0.324700
vt 0.030300 0.455200
vt 0.147500 0.324700
vt 0.159000 0.322100
vt 0.030300 0.291800
vt 0.340400 0.892800
vt 0.340400 0.872000
vt 0.208700 0.933300
vt 0.208700 0.901800
vt 0.357100 0.892800
vt 0.357100 0.872000
vt 0.030300 0.289900
vt 0.147500 0.291800
vt 0.159000 0.291800
vt 0.488400 0.915000
vt 0.522500 0.915000
vt 0.529000 0.921800
vt 0.528700 0.934200
vt 0.522000 0.940700
vt 0.488000 0.939500
vt 0.054000 0.721500
vt 0.108100 0.718200
vt 0.125900 0.755400
vt 0.046200 0.756200
vt 0.041700 0.750600
vt 0.047500 0.722700
vt 0.022200 0.741600
vt 0.031000 0.726100
vt 0.110000 0.715000
vt 0.129300 0.753700
vt 0.125500 0.759200
vt 0.044500 0.759200
vt 0.053600 0.719400
vt 0.039300 0.753300
vt 0.046900 0.719100
vt 0.020400 0.744600
vt 0.029300 0.724100
vt 0.019800 0.740300
vt 0.020400 0.706600
vt 0.033400 0.699000
vt 0.034200 0.690300
vt 0.104900 0.680000
vt 0.323500 0.940200
vt 0.306200 0.939800
vt 0.308500 0.930700
vt 0.323400 0.930900
vt 0.358600 0.927800
vt 0.359600 0.936400
vt 0.345900 0.937300
vt 0.344700 0.928900
vt 0.305700 0.930000
vt 0.303200 0.938800
vt 0.344400 0.926100
vt 0.358300 0.924900
vt 0.346900 0.947400
vt 0.360500 0.946900
vt 0.360700 0.952200
vt 0.347100 0.953000
vt 0.303600 0.954700
vt 0.302400 0.949400
vt 0.306500 0.950500
vt 0.306800 0.954600
vt 0.323900 0.953800
vt 0.323700 0.949500
vt 0.338000 0.953200
vt 0.334800 0.953300
vt 0.334700 0.949200
vt 0.338200 0.947700
vt 0.335800 0.930200
vt 0.337200 0.938800
vt 0.334200 0.939500
vt 0.333000 0.930600
vt 0.346500 0.942800
vt 0.360100 0.942000
vt 0.305500 0.944500
vt 0.323600 0.944500
vt 0.301200 0.944400
vt 0.334700 0.943900
vt 0.338300 0.943700
vt 0.327900 0.930900
vt 0.328400 0.940100
vt 0.340200 0.926600
vt 0.340600 0.929500
vt 0.341800 0.937900
vt 0.342600 0.943200
vt 0.328600 0.944300
vt 0.335400 0.927300
vt 0.342800 0.947600
vt 0.342900 0.953000
vt 0.329000 0.953600
vt 0.328800 0.949400
vt 0.512700 0.724000
vt 0.516200 0.719000
vt 0.517500 0.722800
vt 0.515300 0.725800
vt 0.521100 0.720000
vt 0.520500 0.716300
vt 0.525000 0.715600
vt 0.525600 0.719300
vt 0.525100 0.747500
vt 0.525600 0.751200
vt 0.520700 0.749800
vt 0.520900 0.745900
vt 0.516000 0.746100
vt 0.517900 0.743600
vt 0.324700 0.967400
vt 0.325500 0.976600
vt 0.310600 0.978200
vt 0.307500 0.969300
vt 0.360600 0.976700
vt 0.346800 0.976700
vt 0.347200 0.968200
vt 0.360900 0.968100
vt 0.307900 0.979100
vt 0.304700 0.970600
vt 0.346700 0.979600
vt 0.360600 0.979600
vt 0.348100 0.958200
vt 0.361100 0.957500
vt 0.306800 0.958600
vt 0.302800 0.960100
vt 0.324100 0.958100
vt 0.338600 0.958600
vt 0.335100 0.957400
vt 0.337800 0.976200
vt 0.335000 0.976000
vt 0.335500 0.967100
vt 0.338400 0.967600
vt 0.347400 0.962700
vt 0.361100 0.962600
vt 0.306400 0.964700
vt 0.324400 0.963100
vt 0.302100 0.965200
vt 0.335500 0.962700
vt 0.339100 0.962500
vt 0.329900 0.976200
vt 0.329600 0.967100
vt 0.342500 0.979400
vt 0.342700 0.976500
vt 0.343100 0.968000
vt 0.343400 0.962600
vt 0.329500 0.962800
vt 0.343100 0.958300
vt 0.329200 0.957800
vt 0.513100 0.728900
vt 0.509100 0.728800
vt 0.511500 0.733200
vt 0.507800 0.733700
vt 0.508500 0.738200
vt 0.512200 0.737600
vt 0.511100 0.742500
vt 0.514900 0.741300
vt 0.337600 0.979100
s 1
usemtl default.004
f 1/1/1 2/2/1 3/3/1 4/4/1
f 5/5/2 6/6/2 7/7/3 8/8/3
f 9/9/4 10/10/4 11/11/5 12/12/5
f 13/13/6 14/14/6 15/15/6 16/16/6
f 19/17/1 20/18/1 21/19/1 22/20/1
f 23/21/7 24/22/7 25/23/7 26/24/7
f 27/25/8 28/26/8 29/27/9 30/28/9
f 31/29/10 32/30/10 33/31/11 34/32/11
f 35/33/12 36/34/12 37/35/13 38/36/13
f 39/37/1 40/38/1 41/39/1 42/40/1
f 43/41/7 44/42/7 45/43/7 46/44/7
f 47/45/14 48/46/14 49/47/15 50/48/15
f 4/4/1 3/3/1 51/49/1 52/50/1
f 53/51/7 54/52/7 55/53/7 56/54/7
f 57/55/16 58/56/16 10/10/4 9/9/4
f 8/57/17 7/58/17 59/59/18 60/60/18
f 38/61/13 37/62/13 61/63/19 62/64/19
f 46/44/7 45/43/7 63/65/7 64/66/7
f 65/67/20 66/68/20 48/46/14 47/45/14
f 4/4/21 67/69/22 68/70/23 1/1/24
f 69/71/25 70/72/26 71/73/27 53/51/28
f 72/74/29 73/75/29 6/6/2 5/5/2
f 19/17/30 40/38/31 76/76/32 77/77/33
f 78/78/7 79/79/7 80/80/7 81/81/7
f 40/38/31 39/37/34 82/82/35 76/76/32
f 83/83/7 84/84/7 79/79/7 78/78/7
f 52/50/36 20/18/37 85/85/38 86/86/39
f 87/87/7 88/88/7 89/89/7 90/90/7
f 91/91/40 92/92/41 93/93/42 94/94/43
f 75/95/6 74/96/6 14/14/6 13/13/6
f 81/81/44 26/24/45 43/41/46 78/78/47
f 78/78/47 43/41/46 46/44/48 83/83/49
f 90/90/50 56/54/51 23/21/52 87/87/53
f 95/97/54 64/66/55 96/98/56 97/99/57
f 12/100/29 11/101/29 73/75/29 72/74/29
f 77/77/1 76/76/1 98/102/1 99/103/1
f 76/76/1 82/82/1 100/104/1 98/102/1
f 86/86/1 85/85/1 101/105/1 102/106/1
f 40/38/1 19/17/1 22/20/1 41/39/1
f 26/24/7 25/23/7 44/42/7 43/41/7
f 50/48/15 49/47/15 28/26/8 27/25/8
f 34/32/11 33/31/11 36/34/12 35/33/12
f 20/18/37 19/17/30 77/77/33 85/85/38
f 81/81/7 80/80/7 88/88/7 87/87/7
f 26/24/45 81/81/44 87/87/53 23/21/52
f 85/85/1 77/77/1 99/103/1 101/105/1
f 60/60/18 59/59/18 32/30/10 31/29/10
f 20/18/1 52/50/1 51/49/1 21/19/1
f 56/54/7 55/53/7 24/22/7 23/21/7
f 30/28/9 29/27/9 58/56/16 57/55/16
f 86/86/39 67/69/22 4/4/21 52/50/36
f 90/90/7 89/89/7 103/107/7 69/71/7
f 90/90/50 69/71/25 53/51/28 56/54/51
f 102/106/1 104/108/1 67/69/1 86/86/1
f 64/66/7 63/65/7 105/109/7 96/98/7
f 16/110/58 15/111/58 66/68/20 65/67/20
f 62/64/19 61/63/19 106/112/59 107/113/59
f 94/94/43 82/82/35 39/37/34 91/91/40
f 95/97/7 108/114/7 84/84/7 83/83/7
f 95/97/54 83/83/49 46/44/48 64/66/55
f 82/82/1 94/94/1 109/115/1 100/104/1
f 42/40/1 110/116/1 91/91/1 39/37/1
f 67/69/1 104/108/1 111/117/1 68/70/1
f 112/118/7 54/52/7 53/51/7 71/73/7
f 113/119/1 109/115/1 94/94/1 93/93/1
f 97/99/7 114/120/7 108/114/7 95/97/7
f 70/72/7 69/71/7 103/107/7 115/121/7
f 7/7/3 6/6/2 70/122/60 115/123/3
f 8/8/3 2/124/3 1/125/60 5/5/2
f 11/11/5 10/10/4 54/52/4 112/118/5
f 12/12/5 111/126/5 104/127/4 9/9/4
f 14/14/6 96/128/6 105/129/6 15/15/6
f 16/16/6 113/130/6 93/131/6 13/13/6
f 28/26/8 25/23/8 24/22/9 29/27/9
f 30/28/9 101/132/9 99/133/8 27/25/8
f 32/30/10 89/89/10 88/88/11 33/31/11
f 34/32/11 21/19/11 51/49/10 31/29/10
f 36/34/12 80/80/12 79/79/61 37/35/13
f 38/36/13 41/39/61 22/20/12 35/33/12
f 48/46/14 45/43/14 44/42/15 49/47/15
f 50/48/15 98/134/15 100/135/14 47/45/14
f 58/56/16 55/53/16 54/52/4 10/10/4
f 9/9/4 104/127/4 102/136/16 57/55/16
f 7/58/17 115/121/17 103/107/18 59/59/18
f 60/60/18 3/3/18 2/2/17 8/57/17
f 37/35/13 79/79/61 84/84/62 116/137/62
f 117/138/62 42/40/62 41/39/61 38/36/13
f 48/46/14 66/68/20 63/65/20 45/43/14
f 65/67/20 47/45/14 100/135/14 109/139/20
f 6/6/2 73/75/29 71/140/29 70/122/60
f 68/141/29 72/74/29 5/5/2 1/125/60
f 96/128/6 14/14/6 74/96/6 97/142/6
f 75/95/6 13/13/6 93/131/6 92/143/6
f 11/101/29 112/144/29 71/140/29 73/75/29
f 72/74/29 68/141/29 111/145/29 12/100/29
f 49/47/15 44/42/15 25/23/8 28/26/8
f 27/25/8 99/133/8 98/134/15 50/48/15
f 33/31/11 88/88/11 80/80/12 36/34/12
f 35/33/12 22/20/12 21/19/11 34/32/11
f 59/59/18 103/107/18 89/89/10 32/30/10
f 31/29/10 51/49/10 3/3/18 60/60/18
f 29/27/9 24/22/9 55/53/16 58/56/16
f 57/55/16 102/136/16 101/132/9 30/28/9
f 15/111/58 105/109/58 63/65/20 66/68/20
f 65/67/20 109/139/20 113/146/58 16/110/58
f 18/147/63 116/137/62 84/84/62 108/114/64
f 117/138/62 17/148/63 110/116/64 42/40/62
f 116/149/7 61/63/7 37/62/7
f 116/149/7 18/150/7 106/112/7 61/63/7
f 106/112/65 18/151/65 17/152/65 107/113/65
f 107/113/1 17/153/1 117/154/1 62/64/1
f 117/154/1 38/61/1 62/64/1
f 118/155/66 119/156/66 120/157/66 121/158/66
f 118/155/67 121/158/67 122/159/67 123/160/67
f 123/160/67 122/159/67 124/161/67 125/162/67
f 120/157/68 119/156/68 126/163/68 127/164/68
f 121/158/7 120/157/7 127/165/7 128/166/7
f 126/163/1 119/156/1 118/155/1 129/167/1
f 122/159/69 121/158/69 128/166/69 130/168/69
f 129/167/70 118/155/70 123/160/70 131/169/70
f 124/161/7 122/159/7 130/168/7 132/170/7
f 125/162/1 133/171/1 131/169/1 123/160/1
f 125/162/71 124/161/71 132/172/71 133/171/71
f 131/169/29 133/171/29 132/173/29 130/174/29
f 130/174/29 128/175/29 129/167/29 131/169/29
f 128/175/72 127/176/72 126/163/72 129/167/72
f 134/177/73 135/178/74 136/179/75 137/180/76
f 138/181/77 139/182/78 140/183/79 141/184/80
f 138/185/81 136/179/81 135/178/82 139/186/82
f 137/187/83 136/188/84 138/181/84 141/184/63
f 142/189/85 143/190/86 144/191/87 145/192/87
f 144/193/88 143/194/89 146/195/90 147/196/91
f 148/197/92 147/196/93 146/195/94 149/198/95
f 150/199/96 151/200/97 152/201/98 153/202/99
f 154/203/97 155/204/97 156/205/97 157/206/97
f 158/207/100 140/183/79 139/182/78 159/208/101
f 149/198/95 146/195/94 160/209/102 161/210/103
f 139/186/82 135/178/82 160/209/104 159/211/105
f 153/202/99 152/201/98 162/212/106 163/213/107
f 142/189/85 158/207/108 159/208/109 143/190/86
f 161/210/110 160/209/111 135/178/74 134/177/73
f 143/194/89 159/211/105 160/209/104 146/195/90
f 155/204/97 163/213/107 162/212/106 156/205/97
f 164/214/112 165/215/113 134/177/73 137/180/76
f 164/216/114 137/187/83 141/184/63 166/217/114
f 166/217/115 141/184/80 140/183/79 167/218/116
f 167/218/116 140/183/79 158/207/100 168/219/117
f 165/215/113 169/220/118 161/210/110 134/177/73
f 165/215/113 164/214/112 157/206/112 156/205/119
f 166/217/114 154/203/114 157/221/114 164/216/114
f 154/203/120 166/217/115 167/218/116 155/204/121
f 168/219/117 163/213/117 155/204/121 167/218/116
f 170/222/122 153/202/123 163/213/124 168/219/125
f 171/223/126 150/199/126 153/202/123 170/222/122
f 151/200/114 172/224/114 173/225/127 152/201/128
f 173/225/127 169/220/129 162/212/129 152/201/128
f 169/220/118 165/215/113 156/205/119 162/212/118
f 171/226/130 170/227/131 173/228/132 172/229/133
f 169/230/134 173/228/132 170/227/131 168/231/135
f 169/230/136 168/231/137 158/232/138 161/233/137
f 161/234/139 158/235/140 142/236/99 149/237/141
f 149/237/141 142/236/99 145/238/96 148/239/97
f 174/240/142 175/241/143 176/242/144 177/243/145
f 178/244/75 179/245/146 180/246/147 181/247/148
f 177/243/82 176/242/149 178/248/149 181/249/82
f 175/250/83 179/245/83 178/244/84 176/251/84
f 182/252/150 145/192/87 144/191/87 183/253/151
f 184/254/152 183/255/153 144/193/88 147/196/91
f 148/197/92 185/256/154 184/254/155 147/196/93
f 150/199/96 186/257/156 187/258/157 151/200/97
f 188/259/97 189/260/97 190/261/97 191/262/97
f 192/263/158 193/264/159 181/247/148 180/246/147
f 194/265/160 184/254/155 185/256/154 195/266/161
f 194/265/162 177/243/82 181/249/82 193/267/163
f 196/268/164 187/258/157 186/257/156 197/269/165
f 182/252/150 183/253/151 193/264/166 192/263/167
f 177/243/145 194/265/168 195/266/169 174/240/142
f 183/255/153 184/254/152 194/265/162 193/267/163
f 191/262/97 190/261/97 196/268/164 197/269/165
f 198/270/170 175/241/143 174/240/142 199/271/171
f 179/245/83 175/250/83 198/272/114 200/273/114
f 180/246/147 179/245/146 200/273/172 201/274/173
f 201/274/173 202/275/174 192/263/158 180/246/147
f 199/271/171 174/240/142 195/266/169 203/276/175
f 189/260/170 198/270/170 199/271/171 190/261/176
f 188/259/177 191/262/178 201/274/173 200/273/172
f 202/275/174 201/274/173 191/262/178 197/269/174
f 204/277/179 202/275/180 197/269/181 186/257/182
f 171/223/126 204/277/179 186/257/182 150/199/126
f 151/200/114 187/258/183 205/278/184 172/224/114
f 196/268/185 203/276/185 205/278/184 187/258/183
f 190/261/176 199/271/171 203/276/175 196/268/175
f 171/226/130 172/229/133 205/279/186 204/280/187
f 203/281/188 202/282/189 204/280/187 205/279/186
f 192/283/190 202/282/190 203/281/190 195/284/191
f 182/285/192 192/283/193 195/284/194 185/286/157
f 145/238/96 182/285/192 185/286/157 148/239/97
f 188/259/114 200/273/114 198/272/114 189/287/114
