# Blender 5.2.2 LTS
# www.blender.org
mtllib mihawk.mtl
o RenderMesh_15106406792
v -22.759123 137.069992 538.440796
v 0.000079 137.069992 538.440796
v -16.093521 153.163589 538.440796
v 0.000078 159.828400 538.440796
v -16.093519 120.977188 538.440796
v 16.092878 153.163589 538.440796
v 0.000080 114.309990 538.440796
v 22.759279 137.069992 538.440796
v 16.092880 120.977188 538.440796
v 0.000079 116.005997 532.449585
v -17.199120 119.869995 544.610474
v -14.895122 122.175591 532.449585
v 0.000080 112.746796 544.610474
v -14.895120 122.175591 556.771973
v 0.000081 116.005997 556.771973
v -8.599919 128.470795 565.675171
v 0.000082 124.907593 565.675171
v 0.000081 137.069992 568.933594
v 14.894480 122.175591 532.449585
v 0.000079 116.005997 532.449585
v 17.199280 119.869995 544.610474
v 0.000081 116.005997 556.771973
v 14.894482 122.175591 556.771973
v 0.000082 124.907593 565.675171
v 8.599281 128.470795 565.675171
v 0.000081 137.069992 568.933594
v -21.064722 137.069992 532.449585
v -17.199121 154.269196 544.610474
v -14.895123 151.964386 532.449585
v -24.323120 137.069992 544.610474
v -14.895122 151.964386 556.771973
v -21.064720 137.069992 556.771973
v -8.599919 145.669189 565.675171
v -12.161519 137.069992 565.675171
v 0.000081 137.069992 568.933594
v -14.895122 122.175591 532.449585
v -21.064722 137.069992 532.449585
v -21.064720 137.069992 556.771973
v -14.895120 122.175591 556.771973
v -12.161519 137.069992 565.675171
v -8.599919 128.470795 565.675171
v 0.000081 137.069992 568.933594
v 21.064077 137.069992 532.449585
v 14.894480 122.175591 532.449585
v 24.323280 137.069992 544.610474
v 14.894482 122.175591 556.771973
v 21.064079 137.069992 556.771973
v 8.599281 128.470795 565.675171
v 12.161681 137.069992 565.675171
v 0.000081 137.069992 568.933594
v 14.894478 151.964386 532.449585
v 21.064077 137.069992 532.449585
v 17.199278 154.269196 544.610474
v 21.064079 137.069992 556.771973
v 14.894480 151.964386 556.771973
v 12.161681 137.069992 565.675171
v 8.599281 145.669189 565.675171
v 0.000081 137.069992 568.933594
v 0.000077 158.133987 532.449585
v 14.894478 151.964386 532.449585
v 0.000078 161.392395 544.610474
v 14.894480 151.964386 556.771973
v 0.000079 158.133987 556.771973
v 8.599281 145.669189 565.675171
v 0.000080 149.231598 565.675171
v 0.000081 137.069992 568.933594
v -14.895123 151.964386 532.449585
v 0.000077 158.133987 532.449585
v -17.199121 154.269196 544.610474
v 0.000079 158.133987 556.771973
v -14.895122 151.964386 556.771973
v 0.000080 149.231598 565.675171
v -8.599919 145.669189 565.675171
v 0.000081 137.069992 568.933594
v 6.980726 169.778793 -1185.043945
v -0.000073 137.236389 -1190.976807
v -0.000085 212.541199 -1290.853638
v 6.980735 136.048386 -1101.813599
v -0.000073 137.236389 -1190.976807
v -6.980873 169.778793 -1185.043945
v -0.000085 212.541199 -1290.853638
v -6.980865 136.048386 -1101.813599
v -22.145563 -234.965195 -100.065582
v 22.208841 -239.154007 -75.697601
v -22.209558 -239.154007 -75.697601
v 22.201645 -238.646011 -47.675201
v 22.145639 -234.965195 -100.065582
v -22.201557 -238.646011 -47.675201
v -22.127161 -233.754807 -80.541595
v 22.139246 -234.600388 -30.123993
v 22.126440 -233.754807 -80.541595
v -22.139954 -234.600388 -30.123993
v 22.010445 -226.444412 -15.532013
v -22.010353 -226.444412 -15.532013
v -22.033558 -227.849228 -64.303192
v 22.032843 -227.849228 -64.303192
v -21.837557 -216.006790 -46.821594
v 21.836842 -216.006790 -46.821594
v -21.652758 -205.390793 -47.036804
v 21.652842 -205.390793 -47.036804
v 18.302435 -11.931610 -40.441589
v -18.303165 -11.931610 -40.441589
v 17.388830 95.720398 -38.172791
v 18.302422 286.071594 -40.441589
v -17.388773 178.419586 -38.172791
v -18.303179 286.071594 -40.441589
v -21.652786 479.531616 -47.036804
v 21.652813 479.531616 -47.036804
v 21.836811 490.145203 -46.821594
v -21.837587 490.145203 -46.821594
v 22.032810 501.989197 -64.303192
v -22.033590 501.989197 -64.303192
v 22.126408 507.894775 -80.541595
v -22.127193 507.894775 -80.541595
v 22.145607 509.105164 -100.065582
v -22.145596 509.105164 -100.065582
v 22.208807 513.294006 -75.697601
v -22.209593 513.294006 -75.697601
v 22.201612 512.786804 -47.675201
v -22.201590 512.786804 -47.675201
v 22.139214 508.740356 -30.123993
v -22.139986 508.740356 -30.123993
v -22.010384 500.582825 -15.532013
v 22.010414 500.582825 -15.532013
v 22.144854 -234.965195 68.999207
v -22.209549 -239.154007 44.632019
v 22.208851 -239.154007 44.632019
v -22.201551 -238.646011 16.609619
v -22.145548 -234.965195 68.999207
v 22.201651 -238.646011 16.609619
v 22.126451 -233.754807 49.477600
v -22.139952 -234.600388 -0.940796
v -22.127150 -233.754807 49.477600
v 22.139248 -234.600388 -0.940796
v 22.010445 -226.444412 -15.532013
v -22.010353 -226.444412 -15.532013
v 22.032850 -227.849228 33.238403
v -22.033550 -227.849228 33.238403
v 21.836847 -216.006790 15.756805
v -21.837551 -216.006790 15.756805
v 21.652847 -205.390793 15.971191
v -21.652752 -205.390793 15.971191
v -18.303162 -11.931610 9.376801
v 6.980735 136.048386 -1101.813599
v -0.000065 104.457191 -1120.559204
v -0.000073 137.236389 -1190.976807
v -0.000056 85.301994 -1026.591187
v -0.000073 137.236389 -1190.976807
v -0.000065 104.457191 -1120.559204
v -6.980865 136.048386 -1101.813599
v -0.000056 85.301994 -1026.591187
v -18.303165 -11.931610 -40.441589
v -17.388769 95.720398 -38.172791
v 17.388830 95.720398 -38.172791
v 17.309629 137.069992 -37.963196
v -17.388769 95.720398 -38.172791
v -17.309572 137.069992 -37.963196
v 17.388826 178.419586 -38.172791
v -17.388773 178.419586 -38.172791
v 18.302422 286.071594 -40.441589
v 6.980735 136.048386 -1101.813599
v 6.980726 169.778793 -1185.043945
v 10.235142 142.631592 -1026.591187
v -6.980865 136.048386 -1101.813599
v -10.235258 142.631592 -1026.591187
v -6.980873 169.778793 -1185.043945
v 10.235125 204.790802 -1186.174316
v -10.235261 196.849991 -1026.591187
v 10.235139 196.849991 -1026.591187
v -10.235275 204.790802 -1186.174316
v -0.000085 212.541199 -1290.853638
v -10.235251 191.265198 -921.449585
v 10.235148 191.265198 -921.449585
v -10.234441 184.374786 -803.813599
v 10.235159 184.374786 -803.813599
v -10.235225 178.901184 -622.297607
v 10.235175 178.901184 -622.297607
v 10.235194 175.117188 -407.077576
v -10.235206 175.117188 -407.077576
v -10.235203 173.809998 -378.913605
v 10.235197 173.809998 -378.913605
v -10.235193 171.716400 -264.434387
v 10.235207 171.716400 -264.434387
v -10.235183 171.156387 -143.091187
v 10.235217 171.156387 -143.091187
v 10.235229 171.117996 -17.454407
v -10.235171 171.117996 -17.454407
v -22.145596 509.105164 -100.065582
v -22.127193 507.894775 -80.541595
v -22.209593 513.294006 -75.697601
v -22.033590 501.989197 -64.303192
v -22.201590 512.786804 -47.675201
v -21.837587 490.145203 -46.821594
v -22.139986 508.740356 -30.123993
v -22.010384 500.582825 -15.532013
v -21.652784 479.531616 -15.532013
v -21.652786 479.531616 -47.036804
v -18.303179 286.071594 -40.441589
v -21.837582 490.145203 15.756805
v -22.139984 508.740356 -0.940796
v -22.201584 512.786804 16.609619
v -21.652782 479.531616 15.971191
v -18.303173 286.071594 9.376801
v -22.033581 501.989197 33.238403
v -22.209581 513.294006 44.632019
v -22.127182 507.894775 49.477600
v -22.145580 509.105164 68.999207
v -16.499178 286.071594 -15.532013
v -18.303173 286.071594 9.376801
v -18.303179 286.071594 -40.441589
v -17.388769 178.419586 7.107208
v -17.388773 178.419586 -38.172791
v -17.388771 178.419586 -15.657593
v -17.309568 137.069992 6.898407
v -17.388771 178.419586 -15.657593
v -17.309572 137.069992 -37.963196
v -17.312769 137.069992 -15.532013
v -17.388767 95.720398 -15.449585
v -17.388765 95.720398 7.107208
v -17.388769 95.720398 -38.172791
v -16.499165 -11.931610 -15.532013
v -18.303162 -11.931610 9.376801
v -17.388767 95.720398 -15.449585
v -18.303165 -11.931610 -40.441589
v -21.652754 -205.390793 -15.532013
v -18.303165 -11.931610 -40.441589
v -21.652758 -205.390793 -47.036804
v -21.837557 -216.006790 -46.821594
v -18.303162 -11.931610 9.376801
v -21.652752 -205.390793 15.971191
v -21.837551 -216.006790 15.756805
v -22.010353 -226.444412 -15.532013
v -22.139954 -234.600388 -30.123993
v -22.139952 -234.600388 -0.940796
v -22.201557 -238.646011 -47.675201
v -22.201551 -238.646011 16.609619
v -22.033558 -227.849228 -64.303192
v -22.033550 -227.849228 33.238403
v -22.209558 -239.154007 -75.697601
v -22.127161 -233.754807 -80.541595
v -22.145563 -234.965195 -100.065582
v -22.209549 -239.154007 44.632019
v -22.127150 -233.754807 49.477600
v -22.145548 -234.965195 68.999207
v 22.145639 -234.965195 -100.065582
v 22.126440 -233.754807 -80.541595
v 22.208841 -239.154007 -75.697601
v 22.032843 -227.849228 -64.303192
v 22.201645 -238.646011 -47.675201
v 21.836842 -216.006790 -46.821594
v 22.139246 -234.600388 -30.123993
v 22.010445 -226.444412 -15.532013
v 21.652845 -205.390793 -15.532013
v 21.652842 -205.390793 -47.036804
v 18.302435 -11.931610 -40.441589
v 21.836847 -216.006790 15.756805
v 22.139248 -234.600388 -0.940796
v 22.201651 -238.646011 16.609619
v 21.652847 -205.390793 15.971191
v 18.302439 -11.931610 9.376801
v 22.032850 -227.849228 33.238403
v 22.208851 -239.154007 44.632019
v 22.126451 -233.754807 49.477600
v 22.144854 -234.965195 68.999207
v 16.499237 -11.931610 -15.532013
v 18.302439 -11.931610 9.376801
v 18.302435 -11.931610 -40.441589
v 17.388834 95.720398 7.107208
v 17.388830 95.720398 -38.172791
v 17.388832 95.720398 -15.504791
v 17.388832 95.720398 -15.504791
v 17.309633 137.069992 6.898407
v 17.309629 137.069992 -37.963196
v 17.312830 137.069992 -15.532013
v 17.388828 178.419586 -15.515991
v 17.388830 178.419586 7.107208
v 17.388826 178.419586 -38.172791
v 16.499224 286.071594 -15.532013
v 18.302427 286.071594 9.376801
v 17.388828 178.419586 -15.515991
v 18.302422 286.071594 -40.441589
v 21.652815 479.531616 -15.532013
v 18.302422 286.071594 -40.441589
v 21.652813 479.531616 -47.036804
v 21.836811 490.145203 -46.821594
v 18.302427 286.071594 9.376801
v 21.652817 479.531616 15.971191
v 21.836817 490.145203 15.756805
v 22.010414 500.582825 -15.532013
v 22.139214 508.740356 -30.123993
v 22.139215 508.740356 -0.940796
v 22.201612 512.786804 -47.675201
v 22.201618 512.786804 16.609619
v 22.032810 501.989197 -64.303192
v 22.032820 501.989197 33.238403
v 22.208807 513.294006 -75.697601
v 22.126408 507.894775 -80.541595
v 22.145607 509.105164 -100.065582
v 22.208818 513.294006 44.632019
v 22.126419 507.894775 49.477600
v 22.144821 509.105164 68.999207
v 12.118430 122.824394 -17.435974
v 0.000035 117.437195 29.356812
v 0.000031 116.924393 -17.435974
v 11.949635 123.186790 29.356812
v 0.000043 121.214790 127.464783
v 9.947243 125.858795 127.464783
v 0.000054 124.600395 253.662384
v 9.947243 125.858795 127.464783
v 8.408054 128.253189 253.662384
v 0.000063 125.090790 353.152008
v 8.408063 128.598785 353.152008
v 0.000073 121.977989 466.483978
v 10.667273 126.397995 466.483978
v 0.000077 119.931595 514.437622
v 12.118477 124.950790 514.437622
v -11.949566 123.186790 29.356812
v -17.138371 137.069992 -17.435974
v -12.119169 122.824394 -17.435974
v -16.899166 137.069992 29.356812
v -9.947957 125.858795 127.464783
v -14.068757 137.069992 127.464783
v -8.407946 128.253189 253.662384
v -11.891147 137.069992 253.662384
v -11.891138 137.069992 353.152008
v -8.407937 128.598785 353.152008
v -15.086329 137.069992 466.483978
v -10.667928 126.397995 466.483978
v -17.138325 137.069992 514.437622
v -12.119123 124.950790 514.437622
v 0.000035 117.437195 29.356812
v 0.000031 116.924393 -17.435974
v -11.949566 123.186790 29.356812
v 0.000043 121.214790 127.464783
v -9.947957 125.858795 127.464783
v 0.000054 124.600395 253.662384
v -9.947957 125.858795 127.464783
v -8.407946 128.253189 253.662384
v -8.407937 128.598785 353.152008
v 0.000063 125.090790 353.152008
v -10.667928 126.397995 466.483978
v 0.000073 121.977989 466.483978
v -12.119123 124.950790 514.437622
v 0.000077 119.931595 514.437622
v -17.138371 137.069992 -17.435974
v -11.949567 150.953186 29.356812
v -12.119170 151.314789 -17.435974
v -16.899166 137.069992 29.356812
v -9.947958 148.281189 127.464783
v -14.068757 137.069992 127.464783
v -8.407947 145.886795 253.662384
v -11.891147 137.069992 253.662384
v -8.407938 145.540390 353.152008
v 0.000033 156.702789 29.356812
v 0.000029 157.215591 -17.435974
v -11.949567 150.953186 29.356812
v 0.000042 152.925186 127.464783
v -9.947958 148.281189 127.464783
v 0.000053 149.538788 253.662384
v -11.891147 137.069992 253.662384
v -11.891138 137.069992 353.152008
v -10.667929 147.741989 466.483978
v -15.086329 137.069992 466.483978
v -12.119123 149.189194 514.437622
v -17.138325 137.069992 514.437622
v -9.947958 148.281189 127.464783
v -8.407947 145.886795 253.662384
v 0.000062 149.049194 353.152008
v -8.407938 145.540390 353.152008
v 0.000072 152.161987 466.483978
v -10.667929 147.741989 466.483978
v 0.000076 154.208389 514.437622
v -12.119123 149.189194 514.437622
v -10.235205 151.346786 -407.081604
v -10.235202 150.732391 -378.913605
v -10.235203 173.809998 -378.913605
v -10.235193 171.716400 -264.434387
v -10.235225 178.901184 -622.297607
v -10.235223 137.283585 -622.297607
v -10.234439 137.928391 -803.813599
v -10.234441 184.374786 -803.813599
v -6.980822 117.773994 -622.297607
v -10.235204 135.367584 -407.093597
v -10.235250 139.869995 -921.449585
v -10.235251 191.265198 -921.449585
v -10.235202 135.220398 -378.913605
v -6.980801 125.072395 -378.913605
v -10.235258 142.631592 -1026.591187
v -10.235261 196.849991 -1026.591187
v -6.980873 169.778793 -1185.043945
v -10.235261 196.849991 -1026.591187
v -10.235275 204.790802 -1186.174316
v -0.000085 212.541199 -1290.853638
v -10.235275 204.790802 -1186.174316
v -6.980857 125.979591 -1026.591187
v -6.980865 136.048386 -1101.813599
v -0.000056 85.301994 -1026.591187
v -6.980848 119.641190 -921.449585
v -0.000047 81.097992 -921.449585
v -0.000036 84.817192 -803.813599
v -6.980837 116.156395 -803.813599
v -0.000021 89.692390 -622.297607
v -0.000002 93.687592 -407.073608
v 17.138432 137.069992 -17.435974
v 11.949635 123.186790 29.356812
v 16.899235 137.069992 29.356812
v 9.947243 125.858795 127.464783
v 14.068843 137.069992 127.464783
v 8.408054 128.253189 253.662384
v 11.890453 137.069992 253.662384
v 11.890462 137.069992 353.152008
v 8.408063 128.598785 353.152008
v 10.667273 126.397995 466.483978
v 15.085672 137.069992 466.483978
v 12.118477 124.950790 514.437622
v 17.138477 137.069992 514.437622
v 11.890462 137.069992 353.152008
v 8.408053 145.886795 253.662384
v 14.068843 137.069992 127.464783
v 8.408062 145.540390 353.152008
v 9.947242 148.281189 127.464783
v 15.085672 137.069992 466.483978
v 16.899235 137.069992 29.356812
v 10.667272 147.741989 466.483978
v 17.138477 137.069992 514.437622
v 12.118476 149.189194 514.437622
v 11.949634 150.953186 29.356812
v 12.118429 151.314789 -17.435974
v 0.000033 156.702789 29.356812
v 0.000029 157.215591 -17.435974
v 11.949634 150.953186 29.356812
v 0.000042 152.925186 127.464783
v 9.947242 148.281189 127.464783
v 0.000053 149.538788 253.662384
v 9.947242 148.281189 127.464783
v 8.408053 145.886795 253.662384
v 8.408062 145.540390 353.152008
v 0.000062 149.049194 353.152008
v 10.667272 147.741989 466.483978
v 0.000072 152.161987 466.483978
v 12.118476 149.189194 514.437622
v 0.000076 154.208389 514.437622
v 6.980726 169.778793 -1185.043945
v 10.235139 196.849991 -1026.591187
v 10.235142 142.631592 -1026.591187
v -0.000085 212.541199 -1290.853638
v 10.235125 204.790802 -1186.174316
v 10.235125 204.790802 -1186.174316
v 10.235139 196.849991 -1026.591187
v 10.235148 191.265198 -921.449585
v 10.235150 139.869995 -921.449585
v 10.235159 184.374786 -803.813599
v 6.980742 125.979591 -1026.591187
v 6.980735 136.048386 -1101.813599
v -0.000056 85.301994 -1026.591187
v 6.980752 119.641190 -921.449585
v -0.000047 81.097992 -921.449585
v -0.000036 84.817192 -803.813599
v 10.235161 137.928391 -803.813599
v 10.235175 178.901184 -622.297607
v 6.980762 116.156395 -803.813599
v -0.000021 89.692390 -622.297607
v 6.980778 117.773994 -622.297607
v -0.000002 93.687592 -407.073608
v 10.235177 137.283600 -622.297607
v 10.235196 135.334000 -407.093597
v 10.235195 151.518799 -407.081604
v 10.235194 175.117188 -407.077576
v 10.235197 173.809998 -378.913605
v 10.235198 150.821991 -378.913605
v 10.235207 171.716400 -264.434387
v 10.235208 150.502792 -264.434387
v 10.235218 151.624390 -143.091187
v 10.235217 171.156387 -143.091187
v 10.235229 153.024399 -17.454407
v 10.235229 171.117996 -17.454407
v 10.235230 135.086792 -17.454407
v 10.235198 135.220398 -378.913605
v 10.235196 135.334000 -407.093597
v 6.980799 125.072395 -378.913605
v 10.235219 135.086792 -143.091187
v 10.235209 135.068390 -264.434387
v 6.980819 124.946793 -143.091187
v 6.980830 123.896393 -17.454407
v 6.980809 125.624390 -264.434387
v 3.384020 117.494797 -143.091187
v 3.490431 115.872391 -17.454407
v 3.402409 118.751595 -264.434387
v 3.751999 118.549988 -378.913605
v 6.270396 117.823593 -407.083984
v -10.235205 151.346786 -407.081604
v -10.235203 173.809998 -378.913605
v -10.235206 175.117188 -407.077576
v -10.235205 151.346786 -407.081604
v -10.235223 137.283585 -622.297607
v -10.235204 135.367584 -407.093597
v 10.235195 151.518799 -407.081604
v 10.235196 135.334000 -407.093597
v 10.235177 137.283600 -622.297607
v -10.235206 175.117188 -407.077576
v -10.235225 178.901184 -622.297607
v -10.235205 151.346786 -407.081604
v 10.235196 135.334000 -407.093597
v 10.235195 151.518799 -407.081604
v 10.235198 150.821991 -378.913605
v -10.235204 135.367584 -407.093597
v -10.235202 150.732391 -378.913605
v -10.235205 151.346786 -407.081604
v -10.235204 135.367584 -407.093597
v -6.980822 117.773994 -622.297607
v -6.602403 118.484390 -407.083984
v 6.980778 117.773994 -622.297607
v 6.270396 117.823593 -407.083984
v -0.000002 93.687592 -407.073608
v 18.302439 -11.931610 9.376801
v 17.388834 95.720398 7.107208
v -17.388765 95.720398 7.107208
v -17.309568 137.069992 6.898407
v 17.309633 137.069992 6.898407
v -17.388769 178.419586 7.107208
v 17.388830 178.419586 7.107208
v -17.388769 178.419586 7.107208
v -18.303173 286.071594 9.376801
v 21.652817 479.531616 15.971191
v -21.652782 479.531616 15.971191
v -21.837582 490.145203 15.756805
v 21.836817 490.145203 15.756805
v -22.033581 501.989197 33.238403
v 22.032820 501.989197 33.238403
v -22.127182 507.894775 49.477600
v 22.126419 507.894775 49.477600
v -22.145580 509.105164 68.999207
v 22.144821 509.105164 68.999207
v -22.209581 513.294006 44.632019
v 22.208818 513.294006 44.632019
v -22.201584 512.786804 16.609619
v 22.201618 512.786804 16.609619
v -22.139984 508.740356 -0.940796
v 22.139215 508.740356 -0.940796
v -22.010384 500.582825 -15.532013
v 22.010414 500.582825 -15.532013
v 6.980778 117.773994 -622.297607
v 10.235196 135.334000 -407.093597
v 6.270396 117.823593 -407.083984
v -0.000002 93.687592 -407.073608
v -6.602403 118.484390 -407.083984
v -6.980822 117.773994 -622.297607
v -10.235204 135.367584 -407.093597
v -6.980801 125.072395 -378.913605
v 0.000000 95.085991 -378.913605
v -6.602403 118.484390 -407.083984
v -0.000002 93.687592 -407.073608
v -4.058401 119.168396 -378.913605
v -3.636791 119.201187 -264.434387
v -6.980791 125.624390 -264.434387
v -6.980780 124.946793 -143.091187
v -10.235191 135.068390 -264.434387
v -10.235192 150.769989 -264.434387
v -10.235181 135.086792 -143.091187
v -10.235182 152.309998 -143.091187
v -10.235183 171.156387 -143.091187
v -10.235169 135.086792 -17.454407
v -10.235170 154.221985 -17.454407
v -10.235171 171.117996 -17.454407
v -6.981570 123.896393 -17.454407
v -3.507980 117.749992 -143.091187
v -3.490369 115.872391 -17.454407
v -3.507980 117.749992 -143.091187
v 0.000010 97.449997 -264.434387
v -4.058401 119.168396 -378.913605
v 0.000000 95.085991 -378.913605
v -6.602403 118.484390 -407.083984
v 0.000021 98.091591 -143.091187
v -3.490369 115.872391 -17.454407
v 0.000032 98.136398 -17.454407
v 6.270396 117.823593 -407.083984
v 0.000000 95.085991 -378.913605
v -0.000002 93.687592 -407.073608
v 6.270396 117.823593 -407.083984
v 3.751999 118.549988 -378.913605
v 0.000000 95.085991 -378.913605
v 0.000010 97.449997 -264.434387
v 3.402409 118.751595 -264.434387
v 3.384020 117.494797 -143.091187
v 0.000021 98.091591 -143.091187
v 3.490431 115.872391 -17.454407
v 0.000032 98.136398 -17.454407
v 6.980799 125.072395 -378.913605
v 6.270396 117.823593 -407.083984
v 10.235196 135.334000 -407.093597
v -18.303173 286.071594 9.376801
v 17.388830 178.419586 7.107208
v 18.302427 286.071594 9.376801
v 21.652817 479.531616 15.971191
v 21.652847 -205.390793 15.971191
v 18.302439 -11.931610 9.376801
v -18.303162 -11.931610 9.376801
v -17.388765 95.720398 7.107208
v 0.000077 119.637192 511.861603
v -13.019122 124.051590 517.272827
v -12.326323 124.742790 511.861603
v 0.000078 118.658791 517.272827
v -21.394321 115.676392 522.853638
v 0.000079 106.813995 522.853638
v 0.000079 103.721992 530.354370
v -23.579922 113.489990 530.354370
v -21.394320 115.676392 534.722412
v 0.000080 106.813995 534.722412
v -16.263123 120.806793 535.978394
v 0.000079 114.070793 535.978394
v -16.093519 120.977188 538.440796
v 0.000080 114.309990 538.440796
v 12.326477 124.742790 511.861603
v 0.000078 118.658791 517.272827
v 0.000077 119.637192 511.861603
v 13.019277 124.051590 517.272827
v 0.000079 106.813995 522.853638
v 21.393679 115.676392 522.853638
v 23.580078 113.489990 530.354370
v 0.000079 103.721992 530.354370
v 0.000080 106.813995 534.722412
v 21.393681 115.676392 534.722412
v 0.000079 114.070793 535.978394
v 16.262478 120.806793 535.978394
v 0.000080 114.309990 538.440796
v 16.092880 120.977188 538.440796
v -12.326323 124.742790 511.861603
v -18.411123 137.069992 517.272827
v -17.432724 137.069992 511.861603
v -13.019122 124.051590 517.272827
v -30.255922 137.069992 522.853638
v -21.394321 115.676392 522.853638
v -23.579922 113.489990 530.354370
v -33.347126 137.069992 530.354370
v -30.255922 137.069992 534.722412
v -21.394320 115.676392 534.722412
v -22.999922 137.069992 535.978394
v -16.263123 120.806793 535.978394
v -22.759123 137.069992 538.440796
v -16.093519 120.977188 538.440796
v 17.432076 137.069992 511.861603
v 13.019277 124.051590 517.272827
v 12.326477 124.742790 511.861603
v 18.411276 137.069992 517.272827
v 21.393679 115.676392 522.853638
v 30.255280 137.069992 522.853638
v 33.347279 137.069992 530.354370
v 23.580078 113.489990 530.354370
v 30.255280 137.069992 534.722412
v 21.393681 115.676392 534.722412
v 16.262478 120.806793 535.978394
v 22.999279 137.069992 535.978394
v 16.092880 120.977188 538.440796
v 22.759279 137.069992 538.440796
v -17.432724 137.069992 511.861603
v -13.019123 150.088394 517.272827
v -12.326324 149.396393 511.861603
v -18.411123 137.069992 517.272827
v -21.394323 158.463593 522.853638
v -30.255922 137.069992 522.853638
v -33.347126 137.069992 530.354370
v -23.579924 160.649185 530.354370
v -21.394321 158.463593 534.722412
v -30.255922 137.069992 534.722412
v -16.263123 153.333191 535.978394
v -22.999922 137.069992 535.978394
v -16.093521 153.163589 538.440796
v -22.759123 137.069992 538.440796
v 12.326475 149.396393 511.861603
v 18.411276 137.069992 517.272827
v 17.432076 137.069992 511.861603
v 13.019276 150.088394 517.272827
v 30.255280 137.069992 522.853638
v 21.393677 158.463593 522.853638
v 23.580076 160.649200 530.354370
v 33.347279 137.069992 530.354370
v 30.255280 137.069992 534.722412
v 21.393679 158.463593 534.722412
v 22.999279 137.069992 535.978394
v 16.262478 153.333191 535.978394
v 22.759279 137.069992 538.440796
v 16.092878 153.163589 538.440796
v 0.000076 154.502792 511.861603
v 13.019276 150.088394 517.272827
v 12.326475 149.396393 511.861603
v 0.000076 155.480392 517.272827
v 21.393677 158.463593 522.853638
v 0.000076 167.325989 522.853638
v 0.000076 170.417191 530.354370
v 23.580076 160.649200 530.354370
v 21.393679 158.463593 534.722412
v 0.000077 167.325989 534.722412
v 16.262478 153.333191 535.978394
v 0.000077 160.069199 535.978394
v 16.092878 153.163589 538.440796
v 0.000078 159.828400 538.440796
v -12.326324 149.396393 511.861603
v 0.000076 155.480392 517.272827
v 0.000076 154.502792 511.861603
v -13.019123 150.088394 517.272827
v 0.000076 167.325989 522.853638
v -21.394323 158.463593 522.853638
v -23.579924 160.649185 530.354370
v 0.000076 170.417191 530.354370
v 0.000077 167.325989 534.722412
v -21.394321 158.463593 534.722412
v 0.000077 160.069199 535.978394
v -16.263123 153.333191 535.978394
v 0.000078 159.828400 538.440796
v -16.093521 153.163589 538.440796
v -12.326324 149.396393 511.861603
v 0.000076 137.069992 511.954437
v -17.432724 137.069992 511.861603
v -12.326323 124.742790 511.861603
v 0.000077 119.637192 511.861603
v 12.326477 124.742790 511.861603
v 0.000076 154.502792 511.861603
v -12.326324 149.396393 511.861603
v 12.326475 149.396393 511.861603
v 17.432076 137.069992 511.861603
v 12.326477 124.742790 511.861603
vn -0.6451 -0.0000 0.7641
vn -0.0000 -0.0000 1.0000
vn -0.4561 0.4562 0.7641
vn 0.0001 0.6451 0.7641
vn -0.4561 -0.4562 0.7641
vn 0.4563 0.4561 0.7641
vn -0.0000 -0.6451 0.7641
vn 0.6451 -0.0001 0.7641
vn 0.4562 -0.4562 0.7640
vn -0.0000 -0.9659 -0.2588
vn -0.7071 -0.7071 -0.0000
vn -0.6830 -0.6830 -0.2588
vn -0.0000 -1.0000 -0.0000
vn -0.6107 -0.6108 0.5039
vn -0.0000 -0.8638 0.5038
vn -0.3506 -0.3507 0.8684
vn -0.0001 -0.4959 0.8684
vn 0.6830 -0.6830 -0.2588
vn 0.0001 -1.0000 -0.0000
vn 0.0001 -0.9659 -0.2588
vn 0.7071 -0.7071 -0.0000
vn 0.6107 -0.6108 0.5039
vn 0.0001 -0.4959 0.8684
vn 0.3507 -0.3506 0.8684
vn -0.9659 0.0001 -0.2588
vn -0.7071 0.7071 -0.0000
vn -0.6831 0.6830 -0.2588
vn -1.0000 -0.0000 -0.0000
vn -0.6108 0.6108 0.5038
vn -0.8638 -0.0000 0.5038
vn -0.3506 0.3506 0.8684
vn -0.4959 0.0001 0.8684
vn -0.0001 -0.0000 1.0000
vn -0.9659 -0.0000 -0.2588
vn -0.6108 -0.6108 0.5039
vn -0.4959 -0.0001 0.8684
vn -0.3506 -0.3506 0.8684
vn 0.9659 -0.0000 -0.2588
vn 1.0000 -0.0000 -0.0000
vn 0.6108 -0.6107 0.5039
vn 0.8638 -0.0000 0.5039
vn 0.4959 -0.0000 0.8684
vn 0.0001 -0.0000 1.0000
vn 0.6831 0.6830 -0.2588
vn 0.7071 0.7071 -0.0000
vn 0.6108 0.6108 0.5039
vn 0.3506 0.3506 0.8684
vn -0.0000 0.9659 -0.2588
vn 0.6830 0.6830 -0.2588
vn -0.0000 1.0000 -0.0000
vn -0.0000 0.8638 0.5039
vn 0.3506 0.3507 0.8684
vn -0.0000 0.4959 0.8684
vn -0.6830 0.6830 -0.2588
vn -0.0001 0.4959 0.8684
vn -0.3506 0.3507 0.8684
vn 0.9896 -0.1236 -0.0739
vn 0.9770 -0.1832 -0.1087
vn 0.9828 -0.1395 -0.1212
vn 0.9858 -0.1610 -0.0477
vn -0.9770 -0.1832 -0.1087
vn -0.9896 -0.1236 -0.0739
vn -0.9828 -0.1395 -0.1212
vn -0.9858 -0.1610 -0.0477
vn -0.9739 0.0271 -0.2253
vn 0.7141 -0.6980 -0.0540
vn -0.7141 -0.6979 -0.0540
vn 0.7146 -0.6941 0.0868
vn 0.9739 0.0271 -0.2252
vn -0.7146 -0.6941 0.0868
vn -0.7054 0.6943 -0.1424
vn 0.7160 -0.6498 0.2551
vn 0.7054 0.6944 -0.1423
vn -0.7159 -0.6499 0.2551
vn 0.9220 -0.3872 -0.0000
vn -0.9220 -0.3871 -0.0000
vn -0.7048 0.6341 -0.3181
vn 0.7048 0.6341 -0.3181
vn -0.8599 0.2457 -0.4474
vn 0.8599 0.2457 -0.4474
vn -0.7127 0.0187 -0.7012
vn 0.7127 0.0187 -0.7012
vn 0.7192 0.0275 -0.6942
vn -0.7192 0.0274 -0.6942
vn 0.7137 0.0100 -0.7004
vn 0.7192 -0.0274 -0.6942
vn -0.7137 -0.0100 -0.7004
vn -0.7192 -0.0275 -0.6943
vn -0.7127 -0.0187 -0.7012
vn 0.7127 -0.0186 -0.7012
vn 0.8599 -0.2457 -0.4474
vn -0.8599 -0.2457 -0.4474
vn 0.7048 -0.6341 -0.3181
vn -0.7048 -0.6340 -0.3181
vn 0.7054 -0.6944 -0.1424
vn -0.7054 -0.6943 -0.1424
vn 0.9739 -0.0271 -0.2253
vn -0.9739 -0.0271 -0.2253
vn 0.7142 0.6979 -0.0540
vn -0.7141 0.6979 -0.0540
vn 0.7146 0.6941 0.0868
vn -0.7146 0.6941 0.0868
vn 0.7160 0.6498 0.2550
vn -0.7161 0.6498 0.2551
vn -0.9220 0.3872 0.0001
vn 0.9220 0.3872 -0.0000
vn 0.9739 0.0271 0.2253
vn -0.7141 -0.6980 0.0540
vn 0.7141 -0.6979 0.0540
vn -0.7146 -0.6941 -0.0868
vn -0.9739 0.0271 0.2252
vn 0.7146 -0.6941 -0.0868
vn 0.7054 0.6943 0.1424
vn -0.7160 -0.6498 -0.2551
vn -0.7054 0.6944 0.1423
vn 0.7161 -0.6498 -0.2551
vn 0.7048 0.6341 0.3181
vn -0.7048 0.6341 0.3181
vn 0.8599 0.2457 0.4474
vn -0.8599 0.2457 0.4474
vn 0.7127 0.0186 0.7012
vn -0.7127 0.0187 0.7012
vn -0.7192 0.0274 0.6942
vn 0.9817 -0.1823 -0.0553
vn 0.9839 -0.1776 -0.0200
vn -0.9817 -0.1823 -0.0553
vn -0.9839 -0.1776 -0.0200
vn -0.7192 0.0274 -0.6943
vn -0.7137 0.0100 -0.7004
vn 0.7137 0.0099 -0.7004
vn 0.7071 -0.0000 -0.7071
vn -0.7137 0.0099 -0.7004
vn -0.7071 -0.0000 -0.7071
vn 0.7137 -0.0099 -0.7004
vn -0.7137 -0.0099 -0.7004
vn 0.7192 -0.0274 -0.6943
vn 0.9965 -0.0823 -0.0136
vn -0.9965 -0.0823 -0.0136
vn -0.0000 0.9981 0.0614
vn -0.0000 0.9987 0.0514
vn -0.0000 0.9981 0.0619
vn -0.0000 0.9973 0.0738
vn -0.0000 0.9984 0.0558
vn -0.0000 0.9990 0.0443
vn -0.0000 0.9997 0.0239
vn -0.0000 0.9995 0.0320
vn -0.0000 0.9995 0.0323
vn -0.0000 0.9999 0.0115
vn -0.0000 1.0000 0.0025
vn -0.0000 1.0000 0.0003
vn -0.7054 -0.6944 -0.1424
vn -0.7141 0.6980 -0.0540
vn -0.7048 -0.6341 -0.3181
vn -0.7145 0.6942 0.0867
vn -0.7159 0.6499 0.2551
vn -0.9221 0.3871 -0.0000
vn -0.9998 -0.0193 -0.0000
vn -0.7126 -0.0187 -0.7013
vn -0.7192 -0.0274 -0.6943
vn -0.8599 -0.2457 0.4474
vn -0.7159 0.6499 -0.2551
vn -0.7145 0.6942 -0.0868
vn -0.7126 -0.0187 0.7013
vn -0.7192 -0.0275 0.6943
vn -0.7048 -0.6341 0.3181
vn -0.7141 0.6980 0.0540
vn -0.7054 -0.6944 0.1424
vn -0.9739 -0.0271 0.2253
vn -0.9999 -0.0106 -0.0000
vn -0.7191 -0.0275 0.6943
vn -0.7191 -0.0275 -0.6943
vn -0.7136 -0.0099 0.7004
vn -0.7136 -0.0099 -0.7004
vn -1.0000 0.0003 -0.0000
vn -0.7071 -0.0000 0.7071
vn -0.7137 -0.0099 0.7004
vn -1.0000 -0.0019 -0.0000
vn -1.0000 0.0019 -0.0000
vn -0.7137 0.0099 0.7004
vn -0.7136 0.0099 0.7004
vn -0.9999 0.0106 -0.0000
vn -0.7191 0.0275 0.6943
vn -1.0000 -0.0003 -0.0000
vn -0.7136 0.0099 -0.7004
vn -0.7191 0.0275 -0.6943
vn -0.9998 0.0192 -0.0000
vn -0.7192 0.0275 -0.6943
vn -0.7126 0.0187 -0.7013
vn -0.7192 0.0274 0.6943
vn -0.7126 0.0187 0.7013
vn -0.9221 -0.3871 -0.0000
vn -0.7159 -0.6499 -0.2551
vn -0.7145 -0.6942 0.0868
vn -0.7145 -0.6942 -0.0868
vn -0.7048 0.6342 -0.3181
vn -0.7048 0.6341 0.3182
vn -0.7141 -0.6980 -0.0540
vn -0.7054 0.6944 -0.1424
vn -0.7054 0.6944 0.1424
vn -0.9739 0.0271 0.2253
vn 0.7053 0.6944 -0.1424
vn 0.7140 -0.6980 -0.0540
vn 0.7048 0.6341 -0.3182
vn 0.7145 -0.6942 0.0867
vn 0.7160 -0.6499 0.2551
vn 0.9998 0.0192 -0.0000
vn 0.7126 0.0187 -0.7013
vn 0.7192 0.0274 -0.6943
vn 0.7160 -0.6499 -0.2551
vn 0.7145 -0.6942 -0.0868
vn 0.7126 0.0187 0.7013
vn 0.7192 0.0275 0.6943
vn 0.7140 -0.6980 0.0540
vn 0.7054 0.6944 0.1424
vn 0.9739 0.0270 0.2253
vn 0.9999 0.0106 -0.0000
vn 0.7192 0.0275 -0.6943
vn 0.7137 0.0099 0.7004
vn 1.0000 -0.0003 -0.0000
vn 1.0000 0.0019 -0.0000
vn 0.7071 -0.0000 0.7071
vn 1.0000 -0.0019 -0.0000
vn 0.7137 -0.0099 0.7004
vn 0.9999 -0.0106 -0.0000
vn 0.7192 -0.0275 0.6943
vn 1.0000 0.0003 -0.0000
vn 0.7192 -0.0275 -0.6943
vn 0.9998 -0.0192 -0.0000
vn 0.7126 -0.0187 -0.7013
vn 0.7192 -0.0274 0.6943
vn 0.7126 -0.0187 0.7013
vn 0.8599 -0.2457 0.4474
vn 0.7160 0.6498 0.2551
vn 0.7160 0.6498 -0.2551
vn 0.7145 0.6942 0.0868
vn 0.7145 0.6942 -0.0867
vn 0.7048 -0.6341 0.3181
vn 0.7140 0.6980 -0.0540
vn 0.7053 -0.6944 -0.1424
vn 0.9739 -0.0271 -0.2252
vn 0.7140 0.6980 0.0540
vn 0.7054 -0.6944 0.1424
vn 0.9739 -0.0270 0.2253
vn 0.7455 -0.6664 0.0084
vn -0.0000 -0.9997 0.0240
vn -0.0000 -0.9999 0.0103
vn 0.7428 -0.6692 0.0206
vn -0.0000 -0.9995 0.0319
vn 0.7343 -0.6782 0.0277
vn 0.0002 -0.9999 0.0144
vn 0.7212 -0.6926 0.0121
vn 0.0002 -0.9999 -0.0117
vn 0.7109 -0.7031 -0.0126
vn -0.0000 -0.9994 -0.0352
vn 0.7068 -0.7065 -0.0354
vn -0.0000 -0.9991 -0.0426
vn 0.7065 -0.7064 -0.0427
vn -0.7429 -0.6691 0.0206
vn -1.0000 -0.0000 0.0057
vn -0.7453 -0.6667 0.0081
vn -0.9998 -0.0000 0.0176
vn -0.7343 -0.6783 0.0276
vn -0.9997 -0.0000 0.0239
vn -0.7212 -0.6926 0.0121
vn -1.0000 -0.0000 0.0096
vn -0.9999 0.0002 -0.0137
vn -0.7109 -0.7032 -0.0126
vn -0.9994 -0.0000 -0.0354
vn -0.7068 -0.7065 -0.0353
vn -0.9991 -0.0000 -0.0428
vn -0.7065 -0.7064 -0.0427
vn -0.7452 -0.6668 0.0081
vn -0.7428 -0.6692 0.0206
vn -1.0000 0.0001 0.0057
vn -0.7426 0.6694 0.0206
vn -0.7455 0.6664 0.0084
vn -0.9998 -0.0000 0.0175
vn -0.7343 0.6783 0.0276
vn -0.9997 -0.0000 0.0238
vn -0.7212 0.6926 0.0121
vn -0.7110 0.7031 -0.0127
vn -0.7455 0.6665 0.0084
vn -0.0000 0.9997 0.0240
vn -0.0000 0.9999 0.0103
vn -0.0000 0.9995 0.0319
vn -0.0002 0.9999 0.0144
vn -0.7071 0.7062 -0.0353
vn -0.7065 0.7064 -0.0427
vn -0.9991 -0.0000 -0.0427
vn -0.0003 0.9999 -0.0117
vn -0.7109 0.7032 -0.0127
vn -0.0000 0.9994 -0.0352
vn -0.7070 0.7063 -0.0353
vn -0.0000 0.9991 -0.0426
vn -0.9976 -0.0686 -0.0000
vn -0.9970 -0.0773 -0.0007
vn -0.9788 -0.2049 0.0021
vn -0.9940 -0.1088 0.0055
vn -0.9967 -0.0813 -0.0028
vn -0.9899 -0.1420 0.0056
vn -0.9301 -0.3661 0.0292
vn -0.9998 -0.0182 -0.0071
vn -0.9961 -0.0661 -0.0591
vn -0.9866 -0.1618 -0.0200
vn -0.9847 -0.1740 -0.0048
vn -0.9828 -0.1847 -0.0042
vn -0.9772 -0.2124 0.0019
vn -0.9830 -0.1834 0.0001
vn -0.9710 -0.2391 0.0037
vn -0.9726 -0.2309 0.0277
vn 1.0000 -0.0000 0.0061
vn 0.9998 -0.0000 0.0175
vn 0.9997 -0.0000 0.0240
vn 1.0000 -0.0000 0.0095
vn 0.9999 -0.0001 -0.0134
vn 0.7110 -0.7031 -0.0126
vn 0.9994 -0.0000 -0.0355
vn 0.9991 -0.0001 -0.0427
vn 0.9999 -0.0000 -0.0134
vn 0.7212 0.6926 0.0121
vn 0.7109 0.7032 -0.0126
vn 0.7343 0.6782 0.0276
vn 0.7068 0.7065 -0.0353
vn 0.9991 -0.0000 -0.0427
vn 0.7065 0.7064 -0.0427
vn 0.7429 0.6691 0.0206
vn 0.7451 0.6669 0.0080
vn 0.7343 0.6783 0.0276
vn 0.7068 0.7066 -0.0353
vn 0.9998 -0.0183 -0.0071
vn 0.9961 -0.0661 -0.0591
vn 0.9967 -0.0808 -0.0030
vn 0.9866 -0.1618 -0.0200
vn 0.9847 -0.1741 -0.0048
vn 0.9828 -0.1847 -0.0042
vn 0.9772 -0.2124 0.0019
vn 0.9970 -0.0773 -0.0007
vn 0.9830 -0.1834 0.0003
vn 0.9714 -0.2374 0.0039
vn 0.9787 -0.2054 0.0021
vn 0.9737 -0.2260 0.0277
vn 0.9962 -0.0870 0.0002
vn 0.9937 -0.1116 0.0050
vn 0.9891 -0.1475 -0.0005
vn 0.9896 -0.1434 0.0051
vn 0.9937 -0.1117 0.0052
vn 0.9297 -0.3673 0.0286
vn 0.9881 -0.1540 -0.0002
vn 0.9872 -0.1597 -0.0001
vn 0.9295 -0.3688 -0.0025
vn 0.9349 -0.3549 -0.0029
vn 0.9234 -0.3839 -0.0003
vn 0.9018 -0.4322 -0.0042
vn 0.9092 -0.4164 -0.0047
vn 0.8928 -0.4504 -0.0003
vn 0.8929 -0.4478 0.0470
vn 0.9626 -0.2689 0.0335
vn -0.9627 -0.2686 0.0339
vn 0.9626 -0.2688 0.0336
vn 0.7192 0.0274 0.6943
vn -0.7137 0.0099 0.7003
vn 0.7137 -0.0099 0.7003
vn -0.7137 -0.0100 0.7003
vn -0.7192 -0.0274 0.6943
vn -0.7192 -0.0275 0.6942
vn 0.7127 -0.0187 0.7012
vn -0.7127 -0.0187 0.7012
vn 0.7048 -0.6340 0.3181
vn -0.7054 -0.6944 0.1423
vn 0.7054 -0.6944 0.1423
vn -0.9739 -0.0271 0.2252
vn 0.9739 -0.0271 0.2253
vn -0.7142 0.6979 0.0540
vn 0.7141 0.6979 0.0540
vn -0.7146 0.6941 -0.0868
vn 0.7146 0.6941 -0.0868
vn -0.7160 0.6498 -0.2551
vn 0.7161 0.6498 -0.2551
vn -0.9220 0.3873 -0.0000
vn -0.9815 -0.1892 0.0278
vn -0.9461 -0.3216 0.0378
vn -0.9626 -0.2686 0.0339
vn -0.9499 -0.3126 0.0007
vn -0.9234 -0.3839 -0.0002
vn -0.9295 -0.3689 -0.0025
vn -0.9872 -0.1597 -0.0001
vn -0.9881 -0.1536 -0.0004
vn -0.9891 -0.1475 -0.0005
vn -0.9350 -0.3547 -0.0030
vn -0.9516 -0.3072 -0.0024
vn -0.9532 -0.3022 -0.0030
vn -0.9499 -0.3125 0.0007
vn -0.9858 -0.1677 0.0017
vn -0.9461 -0.3216 0.0377
vn -0.9843 -0.1765 -0.0007
vn -0.9532 -0.3022 -0.0031
vn -0.9829 -0.1839 -0.0012
vn 0.9627 -0.2685 0.0338
vn 0.9829 -0.1819 0.0274
vn 0.9870 -0.1609 0.0013
vn 0.9869 -0.1611 0.0015
vn 0.9849 -0.1732 -0.0009
vn 0.9850 -0.1728 -0.0009
vn 0.9833 -0.1820 -0.0015
vn 0.9626 -0.2688 0.0335
vn 0.7137 -0.0100 0.7004
vn 0.7127 -0.0188 0.7012
vn 0.7192 0.0274 0.6942
vn -0.7192 0.0275 0.6942
vn -0.7137 0.0100 0.7004
vn -0.0000 -0.6138 -0.7894
vn -0.5540 -0.5540 -0.6214
vn -0.4341 -0.4340 -0.7894
vn -0.0001 -0.7835 -0.6214
vn -0.5072 -0.5073 -0.6968
vn -0.0000 -0.7173 -0.6968
vn -0.0000 -0.9932 0.1161
vn -0.7023 -0.7023 0.1161
vn -0.3709 -0.3711 0.8513
vn -0.0000 -0.5247 0.8513
vn -0.5040 -0.5040 0.7014
vn -0.0000 -0.7128 0.7014
vn -0.4562 -0.4562 0.7641
vn 0.4341 -0.4340 -0.7894
vn -0.0000 -0.7835 -0.6214
vn -0.0000 -0.6139 -0.7894
vn 0.5540 -0.5540 -0.6214
vn 0.5071 -0.5072 -0.6968
vn 0.7023 -0.7023 0.1162
vn 0.0001 -0.5247 0.8513
vn 0.3711 -0.3710 0.8513
vn -0.0000 -0.7128 0.7013
vn 0.5040 -0.5041 0.7013
vn 0.4561 -0.4561 0.7642
vn -0.4341 -0.4341 -0.7894
vn -0.7835 -0.0000 -0.6214
vn -0.6139 -0.0000 -0.7894
vn -0.5541 -0.5540 -0.6214
vn -0.7173 -0.0001 -0.6968
vn -0.5072 -0.5071 -0.6968
vn -0.9932 -0.0000 0.1162
vn -0.5247 -0.0000 0.8513
vn -0.3710 -0.3711 0.8513
vn -0.7128 -0.0000 0.7014
vn -0.6451 -0.0001 0.7641
vn 0.6138 0.0001 -0.7894
vn 0.4341 -0.4341 -0.7894
vn 0.7835 -0.0001 -0.6214
vn 0.5072 -0.5072 -0.6968
vn 0.7173 -0.0000 -0.6968
vn 0.9932 -0.0000 0.1163
vn 0.5247 -0.0000 0.8513
vn 0.5041 -0.5041 0.7013
vn 0.7128 -0.0000 0.7013
vn 0.6451 0.0001 0.7641
vn -0.5540 0.5540 -0.6214
vn -0.4341 0.4341 -0.7894
vn -0.5072 0.5072 -0.6968
vn -0.7172 0.0001 -0.6968
vn -0.7023 0.7023 0.1162
vn -0.3710 0.3710 0.8513
vn -0.5041 0.5040 0.7013
vn -0.7128 0.0001 0.7014
vn -0.4562 0.4561 0.7641
vn 0.4341 0.4341 -0.7894
vn 0.7835 0.0001 -0.6214
vn 0.6139 -0.0000 -0.7894
vn 0.5540 0.5540 -0.6214
vn 0.5072 0.5072 -0.6968
vn 0.7023 0.7023 0.1162
vn 0.5247 0.0001 0.8513
vn 0.3711 0.3710 0.8513
vn 0.5041 0.5039 0.7014
vn 0.4561 0.4562 0.7641
vn -0.0000 0.6139 -0.7894
vn 0.4341 0.4340 -0.7894
vn 0.0001 0.7835 -0.6214
vn -0.0000 0.7173 -0.6968
vn -0.0000 0.9932 0.1161
vn 0.7023 0.7024 0.1162
vn 0.3710 0.3710 0.8513
vn 0.0001 0.5247 0.8513
vn 0.5040 0.5040 0.7014
vn -0.0000 0.7128 0.7014
vn 0.4562 0.4562 0.7641
vn -0.0000 0.6451 0.7641
vn -0.0001 0.7835 -0.6214
vn -0.0001 0.7173 -0.6968
vn -0.0001 0.9932 0.1161
vn -0.0000 0.5247 0.8513
vn -0.3710 0.3711 0.8513
vn -0.0000 0.7128 0.7013
vn -0.4562 0.4560 0.7641
vn -0.0000 -0.0000 -1.0000
vn -0.4341 -0.4342 -0.7894
vn 0.0001 -0.6138 -0.7894
vn -0.0001 0.6139 -0.7894
vn -0.4342 0.4341 -0.7894
vn 0.6139 0.0001 -0.7894
vt 0.264064 0.993219
vt 0.264164 0.955148
vt 0.291008 0.982130
vt 0.302229 0.955238
vt 0.237177 0.982010
vt 0.291142 0.928290
vt 0.226097 0.955057
vt 0.264256 0.917076
vt 0.237313 0.928156
vt 0.236814 0.784635
vt 0.213223 0.816088
vt 0.213223 0.784635
vt 0.236814 0.816088
vt 0.213223 0.847542
vt 0.236814 0.847542
vt 0.213223 0.878996
vt 0.236814 0.878996
vt 0.225018 0.910450
vt 0.260404 0.784635
vt 0.260404 0.816088
vt 0.260404 0.847542
vt 0.260404 0.878996
vt 0.248609 0.910450
vt 0.189633 0.784635
vt 0.166043 0.816088
vt 0.166043 0.784635
vt 0.189633 0.816088
vt 0.166043 0.847542
vt 0.189633 0.847542
vt 0.166043 0.878996
vt 0.189633 0.878996
vt 0.177838 0.910450
vt 0.201428 0.910450
vt 0.283994 0.784635
vt 0.283994 0.816088
vt 0.283994 0.847542
vt 0.283994 0.878996
vt 0.272199 0.910450
vt 0.307585 0.784635
vt 0.307585 0.816088
vt 0.307585 0.847542
vt 0.307585 0.878996
vt 0.295789 0.910450
vt 0.331175 0.784635
vt 0.331175 0.816088
vt 0.331175 0.847542
vt 0.331175 0.878996
vt 0.319380 0.910450
vt 0.354765 0.784635
vt 0.354765 0.816088
vt 0.354765 0.847542
vt 0.354765 0.878996
vt 0.342970 0.910450
vt 0.126905 0.092566
vt 0.104722 0.088592
vt 0.165016 0.009379
vt 0.099150 0.158545
vt 0.104605 0.088592
vt 0.126788 0.092566
vt 0.164898 0.009379
vt 0.099033 0.158545
vt 0.386261 0.896608
vt 0.422800 0.908993
vt 0.386261 0.908993
vt 0.422800 0.922813
vt 0.422800 0.896608
vt 0.386261 0.922814
vt 0.386261 0.886914
vt 0.422800 0.931937
vt 0.422800 0.886914
vt 0.386261 0.931937
vt 0.422800 0.941194
vt 0.386261 0.941194
vt 0.386261 0.877843
vt 0.422800 0.877843
vt 0.386261 0.865707
vt 0.422800 0.865706
vt 0.386261 0.858079
vt 0.422800 0.858078
vt 0.422800 0.706699
vt 0.386261 0.706751
vt 0.422800 0.619625
vt 0.422800 0.463069
vt 0.386261 0.550225
vt 0.386261 0.463018
vt 0.386261 0.311361
vt 0.422800 0.311362
vt 0.422800 0.303717
vt 0.386261 0.303715
vt 0.422800 0.291554
vt 0.386261 0.291553
vt 0.422800 0.282462
vt 0.386261 0.282462
vt 0.422800 0.272748
vt 0.386261 0.272748
vt 0.422800 0.260335
vt 0.386261 0.260335
vt 0.422800 0.246485
vt 0.386261 0.246485
vt 0.422800 0.237342
vt 0.386261 0.237341
vt 0.386261 0.228064
vt 0.422800 0.228064
vt 0.422800 0.272696
vt 0.386261 0.260298
vt 0.422800 0.260298
vt 0.386261 0.246463
vt 0.386261 0.272696
vt 0.422800 0.246464
vt 0.422800 0.282399
vt 0.386261 0.237330
vt 0.386261 0.282399
vt 0.422800 0.237331
vt 0.422800 0.291480
vt 0.386261 0.291480
vt 0.422800 0.303629
vt 0.386261 0.303628
vt 0.422800 0.311265
vt 0.386261 0.311264
vt 0.386261 0.462743
vt 0.077561 0.145987
vt 0.061591 0.221380
vt 0.077443 0.145987
vt 0.061473 0.221380
vt 0.386261 0.619578
vt 0.422800 0.584903
vt 0.386261 0.584902
vt 0.422800 0.550180
vt 0.100584 0.221380
vt 0.100467 0.221380
vt 0.025232 0.091809
vt 0.038846 0.221380
vt 0.025191 0.221380
vt 0.038800 0.091809
vt 0.032012 0.009379
vt 0.038869 0.291815
vt 0.025172 0.291815
vt 0.038874 0.396915
vt 0.025173 0.396915
vt 0.038880 0.515656
vt 0.025174 0.515656
vt 0.025177 0.597677
vt 0.038886 0.597677
vt 0.038889 0.634397
vt 0.025179 0.634397
vt 0.038896 0.753139
vt 0.025183 0.753139
vt 0.038902 0.871880
vt 0.025190 0.871880
vt 0.025193 0.990621
vt 0.038906 0.990621
vt 0.377750 0.985659
vt 0.403318 0.984074
vt 0.409663 0.991145
vt 0.424584 0.976339
vt 0.446361 0.990480
vt 0.447477 0.960827
vt 0.469345 0.985180
vt 0.488455 0.974498
vt 0.488455 0.946924
vt 0.447197 0.946924
vt 0.455754 0.693535
vt 0.529433 0.960827
vt 0.507565 0.985180
vt 0.530549 0.990480
vt 0.529713 0.946924
vt 0.521157 0.693535
vt 0.552326 0.976339
vt 0.567247 0.991145
vt 0.573592 0.984074
vt 0.599160 0.985659
vt 0.488455 0.693535
vt 0.518108 0.552534
vt 0.458802 0.552534
vt 0.488292 0.552534
vt 0.517835 0.498376
vt 0.459075 0.498376
vt 0.488455 0.498376
vt 0.488489 0.444218
vt 0.518108 0.444218
vt 0.458802 0.444218
vt 0.488454 0.303217
vt 0.521156 0.303217
vt 0.455753 0.303217
vt 0.488452 0.049828
vt 0.447194 0.049828
vt 0.447474 0.035925
vt 0.529710 0.049828
vt 0.529430 0.035925
vt 0.488452 0.022255
vt 0.469342 0.011572
vt 0.507562 0.011572
vt 0.446358 0.006272
vt 0.530546 0.006272
vt 0.424581 0.020414
vt 0.552323 0.020414
vt 0.409659 0.005607
vt 0.403314 0.012678
vt 0.377745 0.011093
vt 0.567245 0.005607
vt 0.573589 0.012678
vt 0.599155 0.011093
vt 0.377747 0.011093
vt 0.403315 0.012678
vt 0.409660 0.005607
vt 0.455751 0.303217
vt 0.507561 0.011572
vt 0.521153 0.303217
vt 0.599157 0.011093
vt 0.488452 0.303217
vt 0.518105 0.444218
vt 0.458799 0.444218
vt 0.517832 0.498376
vt 0.459072 0.498376
vt 0.488452 0.498376
vt 0.488473 0.552534
vt 0.518105 0.552534
vt 0.458799 0.552534
vt 0.488452 0.693535
vt 0.521153 0.693535
vt 0.455751 0.693535
vt 0.488452 0.946924
vt 0.447194 0.946924
vt 0.447474 0.960827
vt 0.529710 0.946924
vt 0.529430 0.960827
vt 0.488452 0.974498
vt 0.469342 0.985180
vt 0.507561 0.985180
vt 0.446358 0.990480
vt 0.530546 0.990480
vt 0.424581 0.976339
vt 0.552323 0.976339
vt 0.409660 0.991145
vt 0.403315 0.984074
vt 0.377747 0.985659
vt 0.567244 0.991145
vt 0.573589 0.984074
vt 0.599157 0.985659
vt 0.250750 0.011976
vt 0.228865 0.050732
vt 0.228865 0.011976
vt 0.250750 0.050732
vt 0.228865 0.182080
vt 0.250750 0.182080
vt 0.228865 0.334704
vt 0.250750 0.334704
vt 0.228865 0.438547
vt 0.250750 0.438547
vt 0.228865 0.598611
vt 0.250750 0.598611
vt 0.228865 0.656742
vt 0.250750 0.656742
vt 0.206981 0.050732
vt 0.185096 0.011976
vt 0.206981 0.011976
vt 0.185096 0.050732
vt 0.206981 0.182080
vt 0.185096 0.182080
vt 0.206981 0.334704
vt 0.185096 0.334704
vt 0.185096 0.438547
vt 0.206981 0.438547
vt 0.185096 0.598611
vt 0.206981 0.598611
vt 0.185096 0.656742
vt 0.206981 0.656742
vt 0.360172 0.011976
vt 0.338288 0.050732
vt 0.338288 0.011976
vt 0.360172 0.050732
vt 0.338288 0.182080
vt 0.360172 0.182080
vt 0.338288 0.334704
vt 0.360172 0.334704
vt 0.338288 0.438547
vt 0.316403 0.050732
vt 0.316403 0.011976
vt 0.316403 0.182080
vt 0.316403 0.334704
vt 0.360172 0.438547
vt 0.338288 0.598611
vt 0.360172 0.598611
vt 0.338288 0.656742
vt 0.360172 0.656742
vt 0.316403 0.438547
vt 0.316403 0.598611
vt 0.316403 0.656742
vt 0.115501 0.597670
vt 0.114894 0.634397
vt 0.121379 0.634397
vt 0.119972 0.753139
vt 0.124261 0.515656
vt 0.096879 0.515656
vt 0.097349 0.396915
vt 0.128462 0.396915
vt 0.083860 0.515656
vt 0.096864 0.598233
vt 0.098632 0.291815
vt 0.133059 0.291815
vt 0.096776 0.634397
vt 0.085039 0.634397
vt 0.136760 0.221380
vt 0.150270 0.091809
vt 0.089110 0.221380
vt 0.084908 0.291815
vt 0.058669 0.291815
vt 0.061094 0.396915
vt 0.082602 0.396915
vt 0.064803 0.515656
vt 0.066837 0.597682
vt 0.272634 0.011976
vt 0.272634 0.050732
vt 0.272634 0.182080
vt 0.272634 0.334704
vt 0.272634 0.438547
vt 0.272634 0.598611
vt 0.272634 0.656742
vt 0.294519 0.334704
vt 0.294519 0.438547
vt 0.294519 0.182080
vt 0.294519 0.598611
vt 0.294519 0.656742
vt 0.294519 0.050732
vt 0.294519 0.011976
vt 0.136878 0.221380
vt 0.150387 0.091809
vt 0.133175 0.291815
vt 0.098748 0.291815
vt 0.128577 0.396915
vt 0.089228 0.221380
vt 0.085023 0.291815
vt 0.058785 0.291815
vt 0.061210 0.396915
vt 0.097464 0.396915
vt 0.124374 0.515656
vt 0.082717 0.396915
vt 0.064916 0.515656
vt 0.083974 0.515656
vt 0.066950 0.597682
vt 0.096993 0.515656
vt 0.096921 0.598233
vt 0.122413 0.597679
vt 0.121492 0.634397
vt 0.115112 0.634397
vt 0.120084 0.753139
vt 0.114750 0.753139
vt 0.114393 0.871880
vt 0.119708 0.871880
vt 0.114036 0.995052
vt 0.119681 0.995052
vt 0.096873 0.995052
vt 0.096889 0.634397
vt 0.085152 0.634397
vt 0.096873 0.871880
vt 0.096874 0.753139
vt 0.085949 0.871880
vt 0.085961 0.995052
vt 0.085777 0.753139
vt 0.077654 0.871880
vt 0.077919 0.995052
vt 0.077399 0.753139
vt 0.077174 0.634397
vt 0.076310 0.597855
vt 0.076456 0.597855
vt 0.422800 0.462799
vt 0.422800 0.550004
vt 0.386261 0.550043
vt 0.386261 0.584727
vt 0.422800 0.584727
vt 0.386261 0.619411
vt 0.422800 0.619449
vt 0.386261 0.706716
vt 0.422800 0.858064
vt 0.386261 0.858066
vt 0.386261 0.865695
vt 0.422800 0.865694
vt 0.386261 0.877833
vt 0.422800 0.877833
vt 0.386261 0.886906
vt 0.422800 0.886906
vt 0.386261 0.896601
vt 0.422800 0.896600
vt 0.386261 0.908988
vt 0.422800 0.908988
vt 0.386261 0.922811
vt 0.422800 0.922810
vt 0.386261 0.931936
vt 0.422800 0.931936
vt 0.067792 0.634397
vt 0.077818 0.634397
vt 0.077835 0.753139
vt 0.085665 0.753139
vt 0.085836 0.871880
vt 0.096761 0.753139
vt 0.114950 0.753139
vt 0.096760 0.871880
vt 0.115010 0.871880
vt 0.119595 0.871880
vt 0.096759 0.995052
vt 0.115070 0.995052
vt 0.119568 0.995052
vt 0.085847 0.995052
vt 0.077825 0.871880
vt 0.077805 0.995052
vt 0.069320 0.753139
vt 0.069734 0.871880
vt 0.069763 0.995052
vt 0.067905 0.634397
vt 0.069433 0.753139
vt 0.069848 0.871880
vt 0.069876 0.995052
vt 0.422800 0.706660
vt 0.222922 0.676311
vt 0.200394 0.694652
vt 0.200394 0.676311
vt 0.222922 0.694652
vt 0.200394 0.713578
vt 0.222922 0.713578
vt 0.222922 0.739007
vt 0.200394 0.739007
vt 0.200394 0.753813
vt 0.222922 0.753813
vt 0.200394 0.758070
vt 0.222922 0.758070
vt 0.200394 0.766421
vt 0.222922 0.766421
vt 0.245450 0.676311
vt 0.245450 0.694652
vt 0.245450 0.713578
vt 0.245450 0.739007
vt 0.245450 0.753813
vt 0.245450 0.758070
vt 0.245450 0.766421
vt 0.177866 0.694652
vt 0.177866 0.676311
vt 0.177866 0.713578
vt 0.177866 0.739007
vt 0.177866 0.753813
vt 0.177866 0.758070
vt 0.177866 0.766421
vt 0.267977 0.676311
vt 0.267977 0.694652
vt 0.267977 0.713578
vt 0.267977 0.739007
vt 0.267977 0.753813
vt 0.267977 0.758070
vt 0.267977 0.766421
vt 0.358088 0.676311
vt 0.335560 0.694652
vt 0.335560 0.676311
vt 0.358088 0.694652
vt 0.335560 0.713578
vt 0.358088 0.713578
vt 0.358088 0.739007
vt 0.335560 0.739007
vt 0.335560 0.753813
vt 0.358088 0.753813
vt 0.335560 0.758070
vt 0.358088 0.758070
vt 0.335560 0.766421
vt 0.358088 0.766421
vt 0.290505 0.676311
vt 0.290505 0.694652
vt 0.290505 0.713578
vt 0.290505 0.739007
vt 0.290505 0.753813
vt 0.290505 0.758070
vt 0.290505 0.766421
vt 0.313033 0.676311
vt 0.313033 0.694652
vt 0.313033 0.713578
vt 0.313033 0.739007
vt 0.313033 0.753813
vt 0.313033 0.758070
vt 0.313033 0.766421
s 1
f 1/1/1 2/2/2 3/3/3
f 3/3/3 2/2/2 4/4/4
f 5/5/5 2/2/2 1/1/1
f 4/4/4 2/2/2 6/6/6
f 7/7/7 2/2/2 5/5/5
f 6/6/6 2/2/2 8/8/8
f 9/9/9 2/2/2 7/7/7
f 8/8/8 2/2/2 9/9/9
f 10/10/10 11/11/11 12/12/12
f 10/10/10 13/13/13 11/11/11
f 13/13/13 14/14/14 11/11/11
f 13/13/13 15/15/15 14/14/14
f 15/15/15 16/16/16 14/14/14
f 15/15/15 17/17/17 16/16/16
f 17/17/17 18/18/2 16/16/16
f 19/19/18 13/13/19 20/10/20
f 19/19/18 21/20/21 13/13/19
f 21/20/21 22/15/15 13/13/19
f 21/20/21 23/21/22 22/15/15
f 23/21/22 24/17/23 22/15/15
f 23/21/22 25/22/24 24/17/23
f 25/22/24 26/23/2 24/17/23
f 27/24/25 28/25/26 29/26/27
f 27/24/25 30/27/28 28/25/26
f 30/27/28 31/28/29 28/25/26
f 30/27/28 32/29/30 31/28/29
f 32/29/30 33/30/31 31/28/29
f 32/29/30 34/31/32 33/30/31
f 34/31/32 35/32/33 33/30/31
f 36/12/12 30/27/28 37/24/34
f 36/12/12 11/11/11 30/27/28
f 11/11/11 38/29/30 30/27/28
f 11/11/11 39/14/35 38/29/30
f 39/14/35 40/31/36 38/29/30
f 39/14/35 41/16/37 40/31/36
f 41/16/37 42/33/2 40/31/36
f 43/34/38 21/20/21 44/19/18
f 43/34/38 45/35/39 21/20/21
f 45/35/39 46/21/40 21/20/21
f 45/35/39 47/36/41 46/21/40
f 47/36/41 48/22/24 46/21/40
f 47/36/41 49/37/42 48/22/24
f 49/37/42 50/38/43 48/22/24
f 51/39/44 45/35/39 52/34/38
f 51/39/44 53/40/45 45/35/39
f 53/40/45 54/36/41 45/35/39
f 53/40/45 55/41/46 54/36/41
f 55/41/46 56/37/42 54/36/41
f 55/41/46 57/42/47 56/37/42
f 57/42/47 58/43/2 56/37/42
f 59/44/48 53/40/45 60/39/49
f 59/44/48 61/45/50 53/40/45
f 61/45/50 62/41/46 53/40/45
f 61/45/50 63/46/51 62/41/46
f 63/46/51 64/42/52 62/41/46
f 63/46/51 65/47/53 64/42/52
f 65/47/53 66/48/2 64/42/52
f 67/49/54 61/45/50 68/44/48
f 67/49/54 69/50/26 61/45/50
f 69/50/26 70/46/51 61/45/50
f 69/50/26 71/51/29 70/46/51
f 71/51/29 72/47/55 70/46/51
f 71/51/29 73/52/56 72/47/55
f 73/52/56 74/53/2 72/47/55
f 75/54/57 76/55/58 77/56/59
f 78/57/60 76/55/58 75/54/57
f 79/58/61 80/59/62 81/60/63
f 79/58/61 82/61/64 80/59/62
f 83/62/65 84/63/66 85/64/67
f 85/64/67 84/63/66 86/65/68
f 83/62/65 87/66/69 84/63/66
f 85/64/67 86/65/68 88/67/70
f 89/68/71 87/66/69 83/62/65
f 88/67/70 86/65/68 90/69/72
f 89/68/71 91/70/73 87/66/69
f 88/67/70 90/69/72 92/71/74
f 92/71/74 90/69/72 93/72/75
f 92/71/74 93/72/75 94/73/76
f 95/74/77 91/70/73 89/68/71
f 95/74/77 96/75/78 91/70/73
f 97/76/79 96/75/78 95/74/77
f 97/76/79 98/77/80 96/75/78
f 99/78/81 98/77/80 97/76/79
f 99/78/81 100/79/82 98/77/80
f 99/78/81 101/80/83 100/79/82
f 99/78/81 102/81/84 101/80/83
f 102/81/84 103/82/85 101/80/83
f 104/83/86 105/84/87 106/85/88
f 104/83/86 106/85/88 107/86/89
f 104/83/86 107/86/89 108/87/90
f 109/88/91 108/87/90 107/86/89
f 109/88/91 107/86/89 110/89/92
f 111/90/93 109/88/91 110/89/92
f 111/90/93 110/89/92 112/91/94
f 113/92/95 111/90/93 112/91/94
f 113/92/95 112/91/94 114/93/96
f 115/94/97 113/92/95 114/93/96
f 115/94/97 114/93/96 116/95/98
f 117/96/99 115/94/97 116/95/98
f 117/96/99 116/95/98 118/97/100
f 119/98/101 117/96/99 118/97/100
f 119/98/101 118/97/100 120/99/102
f 121/100/103 119/98/101 120/99/102
f 121/100/103 120/99/102 122/101/104
f 121/100/103 122/101/104 123/102/105
f 121/100/103 123/102/105 124/103/106
f 125/104/107 126/105/108 127/106/109
f 127/106/109 126/105/108 128/107/110
f 125/104/107 129/108/111 126/105/108
f 127/106/109 128/107/110 130/109/112
f 131/110/113 129/108/111 125/104/107
f 130/109/112 128/107/110 132/111/114
f 131/110/113 133/112/115 129/108/111
f 130/109/112 132/111/114 134/113/116
f 135/103/75 134/113/116 132/111/114
f 135/103/75 132/111/114 136/102/76
f 137/114/117 133/112/115 131/110/113
f 137/114/117 138/115/118 133/112/115
f 139/116/119 138/115/118 137/114/117
f 139/116/119 140/117/120 138/115/118
f 141/118/121 140/117/120 139/116/119
f 141/118/121 142/119/122 140/117/120
f 141/118/121 143/120/123 142/119/122
f 144/57/60 145/121/124 146/55/58
f 144/57/60 147/122/125 145/121/124
f 148/58/61 149/123/126 150/61/64
f 151/124/127 150/61/64 149/123/126
f 152/81/128 153/125/129 154/82/130
f 153/125/129 155/126/131 154/82/130
f 156/125/132 157/127/133 155/126/131
f 157/127/133 158/128/134 155/126/131
f 157/127/133 159/84/135 158/128/134
f 160/83/136 158/128/134 159/84/135
f 161/57/60 162/54/57 163/129/137
f 164/61/64 165/130/138 166/59/62
f 167/131/139 168/132/140 169/133/140
f 167/131/139 170/134/141 168/132/140
f 171/135/142 170/134/141 167/131/139
f 169/133/140 168/132/140 172/136/143
f 169/133/140 172/136/143 173/137/143
f 173/137/143 172/136/143 174/138/144
f 173/137/143 174/138/144 175/139/144
f 175/139/144 174/138/144 176/140/145
f 175/139/144 176/140/145 177/141/145
f 178/142/146 177/141/145 176/140/145
f 178/142/146 176/140/145 179/143/146
f 178/142/146 179/143/146 180/144/147
f 178/142/146 180/144/147 181/145/147
f 181/145/147 180/144/147 182/146/148
f 181/145/147 182/146/148 183/147/148
f 183/147/148 182/146/148 184/148/149
f 183/147/148 184/148/149 185/149/149
f 186/150/150 185/149/149 184/148/149
f 186/150/150 184/148/149 187/151/150
f 188/152/98 189/153/151 190/154/152
f 190/154/152 189/153/151 191/155/153
f 190/154/152 191/155/153 192/156/154
f 192/156/154 191/155/153 193/157/92
f 192/156/154 193/157/92 194/158/155
f 194/158/155 193/157/92 195/159/156
f 193/157/92 196/160/157 195/159/156
f 193/157/92 197/161/158 196/160/157
f 198/162/159 196/160/157 197/161/158
f 199/163/160 195/159/156 196/160/157
f 199/163/160 200/164/161 195/159/156
f 199/163/160 201/165/162 200/164/161
f 199/163/160 196/160/157 202/166/163
f 196/160/157 203/167/164 202/166/163
f 199/163/160 204/168/165 201/165/162
f 204/168/165 205/169/166 201/165/162
f 204/168/165 206/170/167 205/169/166
f 206/170/167 207/171/168 205/169/166
f 196/160/157 208/172/169 209/167/170
f 210/162/171 208/172/169 196/160/157
f 208/172/169 211/173/172 209/167/170
f 208/172/169 210/162/171 212/174/173
f 208/172/169 213/175/174 211/173/172
f 208/172/169 212/174/173 213/175/174
f 214/176/175 211/173/176 215/175/177
f 215/175/177 212/174/135 216/177/133
f 214/176/175 215/175/177 217/178/28
f 215/175/177 216/177/133 217/178/28
f 218/179/178 214/176/175 217/178/28
f 218/179/178 217/178/28 216/177/133
f 218/179/178 219/180/179 214/176/175
f 218/179/178 216/177/133 220/181/132
f 219/180/180 221/182/181 222/183/182
f 219/180/180 223/179/183 221/182/181
f 221/182/181 223/179/183 220/181/184
f 221/182/181 220/181/184 224/184/185
f 222/183/182 221/182/181 225/185/186
f 225/185/186 221/182/181 224/184/185
f 225/185/186 226/184/187 227/186/188
f 228/187/79 225/185/186 227/186/188
f 229/183/189 225/185/186 230/188/190
f 231/189/120 230/188/190 225/185/186
f 228/187/79 232/190/191 225/185/186
f 231/189/120 225/185/186 232/190/191
f 228/187/79 233/191/74 232/190/191
f 234/192/192 231/189/120 232/190/191
f 228/187/79 235/193/193 233/191/74
f 236/194/194 231/189/120 234/192/192
f 228/187/79 237/195/195 235/193/193
f 236/194/194 238/196/196 231/189/120
f 237/195/195 239/197/197 235/193/193
f 237/195/195 240/198/198 239/197/197
f 240/198/198 241/199/65 239/197/197
f 242/200/108 238/196/196 236/194/194
f 242/200/108 243/201/199 238/196/196
f 244/202/200 243/201/199 242/200/108
f 245/203/69 246/204/201 247/205/202
f 247/205/202 246/204/201 248/195/203
f 247/205/202 248/195/203 249/193/204
f 249/193/204 248/195/203 250/187/80
f 249/193/204 250/187/80 251/191/205
f 251/191/205 250/187/80 252/190/75
f 250/187/80 253/185/206 252/190/75
f 250/187/80 254/186/207 253/185/206
f 255/206/208 253/185/206 254/186/207
f 256/189/119 252/190/75 253/185/206
f 256/189/119 257/207/209 252/190/75
f 256/189/119 258/194/210 257/207/209
f 256/189/119 253/185/206 259/188/211
f 253/185/206 260/208/212 259/188/211
f 256/189/119 261/196/117 258/194/210
f 261/196/117 262/200/213 258/194/210
f 261/196/117 263/201/214 262/200/213
f 263/201/214 264/209/215 262/200/213
f 253/185/206 265/210/216 266/208/212
f 267/206/217 265/210/216 253/185/206
f 268/211/218 266/208/212 265/210/216
f 269/212/130 265/210/216 267/206/217
f 268/211/218 265/210/216 270/179/219
f 269/212/130 270/179/219 265/210/216
f 271/179/220 272/213/221 268/211/218
f 271/179/220 269/212/130 273/214/131
f 271/179/220 274/215/39 272/213/221
f 271/179/220 273/214/131 274/215/39
f 275/216/222 272/213/221 274/215/39
f 273/214/131 275/216/222 274/215/39
f 275/216/222 276/217/223 272/213/221
f 273/214/131 277/218/134 275/216/222
f 276/217/223 278/219/224 279/220/225
f 276/217/223 280/216/226 278/219/224
f 277/218/134 278/219/224 280/216/226
f 277/218/134 281/221/227 278/219/224
f 279/220/225 278/219/224 282/222/228
f 282/222/228 278/219/224 281/221/227
f 282/222/228 283/221/227 284/223/229
f 285/224/91 282/222/228 284/223/229
f 286/220/230 282/222/228 287/225/231
f 288/226/232 287/225/231 282/222/228
f 285/224/91 289/227/106 282/222/228
f 288/226/232 282/222/228 289/227/106
f 285/224/91 290/228/233 289/227/106
f 291/229/234 288/226/232 289/227/106
f 285/224/91 292/230/235 290/228/233
f 293/231/236 288/226/232 291/229/234
f 285/224/91 294/232/93 292/230/235
f 293/231/236 295/233/237 288/226/232
f 294/232/93 296/234/238 292/230/235
f 294/232/93 297/235/239 296/234/238
f 297/235/239 298/236/240 296/234/238
f 299/237/241 295/233/237 293/231/236
f 299/237/241 300/238/242 295/233/237
f 301/239/243 300/238/242 299/237/241
f 302/240/244 303/241/245 304/242/246
f 302/240/244 305/243/247 303/241/245
f 305/243/247 306/244/248 303/241/245
f 305/243/247 307/245/249 306/244/248
f 308/246/250 306/244/248 307/245/249
f 308/246/250 309/245/249 310/247/251
f 311/248/252 308/246/250 310/247/251
f 311/248/252 310/247/251 312/249/253
f 312/249/253 313/250/254 311/248/252
f 312/249/253 314/251/255 313/250/254
f 314/251/255 315/252/256 313/250/254
f 314/251/255 316/253/257 315/252/256
f 317/254/258 318/255/259 319/256/260
f 317/254/258 320/257/261 318/255/259
f 321/258/262 320/257/261 317/254/258
f 321/258/262 322/259/263 320/257/261
f 322/259/263 321/258/262 323/260/264
f 322/259/263 323/260/264 324/261/265
f 325/262/266 324/261/265 323/260/264
f 325/262/266 323/260/264 326/263/267
f 326/263/267 327/264/268 325/262/266
f 326/263/267 328/265/269 327/264/268
f 328/265/269 329/266/270 327/264/268
f 328/265/269 330/267/271 329/266/270
f 331/241/245 319/256/272 332/242/246
f 331/241/245 333/254/273 319/256/272
f 334/244/248 333/254/273 331/241/245
f 334/244/248 335/258/262 333/254/273
f 335/258/262 334/244/248 336/246/250
f 337/258/262 336/246/250 338/260/264
f 339/263/267 338/260/264 336/246/250
f 339/263/267 336/246/250 340/248/252
f 340/248/252 341/265/269 339/263/267
f 340/248/252 342/250/254 341/265/269
f 342/250/254 343/267/271 341/265/269
f 342/250/254 344/252/256 343/267/271
f 345/268/274 346/269/275 347/270/276
f 345/268/274 348/271/277 346/269/275
f 348/271/277 349/272/278 346/269/275
f 348/271/277 350/273/279 349/272/278
f 351/274/280 349/272/278 350/273/279
f 351/274/280 350/273/279 352/275/265
f 353/276/281 351/274/280 352/275/265
f 347/270/282 354/277/283 355/278/284
f 347/270/282 356/269/275 354/277/283
f 356/269/275 357/279/285 354/277/283
f 356/269/275 358/272/278 357/279/285
f 359/280/286 357/279/285 358/272/278
f 353/276/281 360/275/265 361/281/266
f 361/281/266 362/282/287 353/276/281
f 361/281/266 363/283/268 362/282/287
f 363/283/268 364/284/288 362/282/287
f 363/283/268 365/285/289 364/284/288
f 359/280/286 366/272/278 367/274/280
f 368/286/290 359/280/286 367/274/280
f 368/286/290 367/274/280 369/276/291
f 369/276/291 370/287/292 368/286/290
f 369/276/291 371/282/293 370/287/292
f 371/282/293 372/288/294 370/287/292
f 371/282/293 373/284/288 372/288/294
f 374/289/28 375/290/28 376/291/28
f 375/290/28 377/292/28 376/291/28
f 374/289/28 378/293/28 379/294/295
f 380/295/296 379/294/295 378/293/28
f 380/295/296 378/293/28 381/296/28
f 380/295/296 382/297/297 379/294/295
f 383/298/298 379/294/295 382/297/297
f 384/299/299 380/295/296 381/296/28
f 384/299/299 381/296/28 385/300/28
f 383/298/298 386/301/300 375/290/28
f 383/298/298 387/302/301 386/301/300
f 388/130/138 384/299/299 385/300/28
f 388/130/138 385/300/28 389/303/302
f 390/59/62 388/130/138 389/303/302
f 390/59/62 391/303/302 392/304/303
f 393/60/63 390/59/62 394/304/303
f 395/305/304 384/299/299 388/130/138
f 396/61/64 395/305/304 388/130/138
f 397/124/127 395/305/304 396/61/64
f 395/305/304 398/306/305 384/299/299
f 398/306/305 395/305/304 397/124/127
f 398/306/305 397/124/127 399/307/306
f 398/306/305 380/295/296 384/299/299
f 400/308/307 398/306/305 399/307/306
f 398/306/305 401/309/308 380/295/296
f 400/308/307 401/309/308 398/306/305
f 380/295/296 401/309/308 382/297/297
f 402/310/309 401/309/308 400/308/307
f 402/310/309 382/297/297 401/309/308
f 403/311/310 382/297/297 402/310/309
f 404/312/311 405/243/247 302/240/244
f 404/312/311 406/313/312 405/243/247
f 406/313/312 407/245/249 405/243/247
f 406/313/312 408/314/313 407/245/249
f 409/247/251 407/245/249 408/314/313
f 409/247/251 408/314/313 410/315/314
f 411/316/315 409/247/251 410/315/314
f 411/316/315 412/249/316 409/247/251
f 411/316/315 413/251/255 412/249/316
f 411/316/315 414/317/317 413/251/255
f 414/317/317 415/253/257 413/251/255
f 414/317/317 416/318/318 415/253/257
f 417/316/319 410/315/314 418/319/320
f 419/314/313 418/319/320 410/315/314
f 417/316/319 418/319/320 420/320/321
f 419/314/313 421/321/322 418/319/320
f 420/320/321 422/317/317 417/316/319
f 421/321/322 419/314/313 423/313/312
f 420/320/321 424/322/323 422/317/317
f 424/322/323 425/318/324 422/317/317
f 424/322/323 426/323/325 425/318/324
f 421/321/322 423/313/312 427/324/326
f 427/324/326 423/313/312 404/312/311
f 427/324/326 404/312/311 428/325/327
f 429/277/283 428/325/327 430/278/284
f 429/277/283 431/324/326 428/325/327
f 432/279/285 431/324/326 429/277/283
f 432/279/285 433/321/322 431/324/326
f 433/321/322 432/279/285 434/280/286
f 435/321/328 434/280/286 436/319/320
f 437/320/321 436/319/320 434/280/286
f 437/320/321 434/280/286 438/286/290
f 438/286/290 439/322/329 437/320/321
f 438/286/290 440/287/292 439/322/329
f 440/287/292 441/323/325 439/322/329
f 440/287/292 442/288/294 441/323/325
f 443/54/57 444/326/330 445/129/137
f 443/54/57 446/56/59 447/327/331
f 443/54/57 448/327/331 449/326/330
f 445/129/137 444/326/330 450/328/39
f 445/129/137 450/328/39 451/329/332
f 451/329/332 450/328/39 452/330/39
f 453/331/333 445/129/137 451/329/332
f 454/57/60 445/129/137 453/331/333
f 454/57/60 453/331/333 455/122/125
f 456/332/334 455/122/125 453/331/333
f 453/331/333 451/329/332 456/332/334
f 456/332/334 457/333/335 455/122/125
f 456/332/334 458/334/336 457/333/335
f 451/329/332 452/330/39 459/335/337
f 456/332/334 451/329/332 459/335/337
f 459/335/337 452/330/39 460/336/39
f 456/332/334 461/337/338 458/334/336
f 456/332/334 459/335/337 461/337/338
f 461/337/338 462/338/339 458/334/336
f 461/337/338 463/339/340 462/338/339
f 463/339/340 461/337/338 459/335/337
f 463/339/340 464/340/341 462/338/339
f 463/339/340 459/335/337 465/341/342
f 459/335/337 460/336/39 465/341/342
f 463/339/340 465/341/342 466/342/343
f 467/289/39 465/341/342 460/336/39
f 467/289/39 460/336/39 468/343/39
f 467/289/39 468/343/39 469/344/39
f 467/289/39 469/344/39 470/345/39
f 470/345/39 469/344/39 471/346/39
f 470/345/39 471/346/39 472/347/39
f 473/348/39 472/347/39 471/346/39
f 473/348/39 471/346/39 474/349/39
f 475/350/39 473/348/39 474/349/39
f 475/350/39 474/349/39 476/351/39
f 477/352/344 473/348/39 475/350/39
f 478/353/345 470/345/39 472/347/39
f 479/342/346 470/345/39 478/353/345
f 480/354/347 479/342/346 478/353/345
f 481/355/348 472/347/39 473/348/39
f 477/352/344 481/355/348 473/348/39
f 478/353/345 472/347/39 482/356/349
f 481/355/348 482/356/349 472/347/39
f 483/357/350 481/355/348 477/352/344
f 483/357/350 482/356/349 481/355/348
f 483/357/350 477/352/344 484/358/351
f 485/359/352 478/353/345 482/356/349
f 483/357/350 485/359/352 482/356/349
f 485/359/352 480/354/347 478/353/345
f 486/360/353 483/357/350 484/358/351
f 486/360/353 484/358/351 487/361/354
f 488/362/355 483/357/350 486/360/353
f 488/362/355 485/359/352 483/357/350
f 489/363/356 485/359/352 488/362/355
f 489/363/356 480/354/347 485/359/352
f 490/364/357 480/354/347 489/363/356
f 491/289/28 492/291/28 493/289/28
f 494/289/28 495/294/295 496/298/298
f 497/289/39 498/342/343 499/341/342
f 500/289/28 501/293/28 502/289/28
f 503/342/346 504/289/39 505/345/39
f 506/298/298 507/290/28 508/289/28
f 509/298/298 510/297/297 511/365/358
f 512/339/340 513/364/359 514/340/341
f 515/366/360 516/367/218 517/368/361
f 516/367/218 518/369/175 517/368/361
f 516/367/218 519/370/221 518/369/175
f 519/370/221 520/371/176 518/369/175
f 519/370/221 521/372/362 522/371/363
f 523/373/364 522/371/363 521/372/362
f 523/373/365 524/374/366 525/375/367
f 526/376/160 525/375/367 524/374/366
f 526/376/160 524/374/366 527/377/232
f 528/378/165 526/376/160 527/377/232
f 528/378/165 527/377/232 529/379/368
f 530/380/369 528/378/165 529/379/368
f 530/380/369 529/379/368 531/381/370
f 532/382/371 530/380/369 531/381/370
f 532/382/371 531/381/370 533/383/372
f 534/384/373 532/382/371 533/383/372
f 534/384/373 533/383/372 535/385/374
f 536/386/375 534/384/373 535/385/374
f 536/386/375 535/385/374 537/387/376
f 538/388/377 536/386/375 537/387/376
f 538/388/377 537/387/376 539/389/378
f 540/73/379 538/388/377 539/389/378
f 540/73/379 539/389/378 541/72/106
f 542/339/340 543/342/343 544/364/359
f 545/311/310 546/365/358 547/297/297
f 548/298/298 546/365/358 549/302/301
f 550/390/380 551/365/358 552/311/310
f 553/391/381 387/302/301 551/365/382
f 554/392/383 387/302/301 553/391/381
f 554/392/383 555/393/384 387/302/301
f 386/301/300 387/302/301 555/393/384
f 556/394/385 555/393/384 554/392/383
f 386/301/300 555/393/384 557/395/386
f 557/395/386 555/393/384 556/394/385
f 375/290/28 386/301/300 557/395/386
f 375/290/28 557/395/386 558/396/28
f 375/290/28 558/396/28 377/292/28
f 558/396/28 557/395/386 559/397/387
f 557/395/386 556/394/385 559/397/387
f 377/292/28 558/396/28 560/398/28
f 558/396/28 559/397/387 560/398/28
f 377/292/28 560/398/28 561/399/28
f 556/394/385 562/400/388 559/397/387
f 560/398/28 559/397/387 562/400/388
f 560/398/28 562/400/388 563/401/28
f 561/399/28 560/398/28 563/401/28
f 561/399/28 563/401/28 564/402/28
f 556/394/385 565/403/389 562/400/388
f 565/403/389 556/394/385 566/404/390
f 565/403/389 566/404/390 567/405/391
f 556/394/385 554/392/383 566/404/390
f 568/404/390 554/392/392 569/406/393
f 569/406/393 554/392/392 570/391/394
f 569/406/393 570/391/394 571/390/380
f 571/390/380 570/391/394 572/365/358
f 568/404/390 569/406/393 573/407/395
f 574/405/396 568/404/390 573/407/395
f 574/405/396 573/407/395 575/408/397
f 576/364/398 577/409/399 578/340/341
f 579/364/359 580/363/399 581/409/399
f 580/363/399 582/410/400 581/409/399
f 580/363/399 583/362/401 582/410/400
f 584/360/402 582/410/400 583/362/401
f 584/360/402 585/411/403 582/410/400
f 586/361/404 585/411/403 584/360/402
f 586/361/404 587/412/404 585/411/403
f 588/354/347 589/364/405 590/342/346
f 591/373/365 592/372/406 593/413/225
f 591/373/365 593/413/225 594/374/407
f 595/118/121 596/366/408 597/120/409
f 596/366/408 598/368/410 597/120/409
f 599/414/411 600/415/412 601/416/413
f 599/414/411 602/417/414 600/415/412
f 602/417/414 603/418/415 600/415/412
f 602/417/414 604/419/416 603/418/415
f 605/420/417 603/418/415 604/419/416
f 605/420/417 606/421/418 603/418/415
f 605/420/417 607/422/419 606/421/418
f 605/420/417 608/423/420 607/422/419
f 608/423/420 609/424/421 607/422/419
f 608/423/420 610/425/422 609/424/421
f 610/425/422 611/426/423 609/424/421
f 610/425/422 612/427/7 611/426/423
f 613/428/424 614/417/425 615/414/426
f 613/428/424 616/429/427 614/417/425
f 616/429/427 617/419/416 614/417/425
f 616/429/427 618/430/428 617/419/416
f 619/431/429 617/419/416 618/430/428
f 619/431/429 620/420/417 617/419/416
f 619/431/429 621/423/430 620/420/417
f 619/431/429 622/432/431 621/423/430
f 622/432/431 623/425/432 621/423/430
f 622/432/431 624/433/433 623/425/432
f 624/433/433 625/427/7 623/425/432
f 624/433/433 626/434/434 625/427/7
f 627/416/435 628/435/436 629/436/437
f 627/416/435 630/415/438 628/435/436
f 630/415/438 631/437/439 628/435/436
f 630/415/438 632/418/440 631/437/439
f 633/421/418 631/437/439 632/418/440
f 633/421/418 634/438/441 631/437/439
f 633/421/418 635/439/442 634/438/441
f 633/421/418 636/422/443 635/439/442
f 636/422/443 637/440/444 635/439/442
f 636/422/443 638/424/421 637/440/444
f 638/424/421 639/441/445 637/440/444
f 638/424/421 640/426/5 639/441/445
f 641/442/446 642/429/427 643/428/447
f 641/442/446 644/443/448 642/429/427
f 644/443/448 645/430/449 642/429/427
f 644/443/448 646/444/450 645/430/449
f 647/445/451 645/430/449 646/444/450
f 647/445/451 648/431/429 645/430/449
f 649/446/452 648/431/429 647/445/451
f 649/446/452 650/432/431 648/431/429
f 649/446/452 651/433/453 650/432/431
f 649/446/452 652/447/454 651/433/453
f 652/447/454 653/434/434 651/433/453
f 652/447/454 654/448/455 653/434/434
f 655/449/437 656/450/456 657/451/457
f 655/449/437 658/452/436 656/450/456
f 658/452/436 659/453/458 656/450/456
f 658/452/436 660/454/459 659/453/458
f 661/455/441 659/453/458 660/454/459
f 661/455/441 662/456/460 659/453/458
f 661/455/441 663/457/461 662/456/460
f 661/455/441 664/458/442 663/457/461
f 664/458/442 665/459/462 663/457/461
f 664/458/442 666/460/463 665/459/462
f 666/460/463 667/461/464 665/459/462
f 666/460/463 668/462/445 667/461/464
f 669/463/465 670/443/466 671/442/467
f 669/463/465 672/464/468 670/443/466
f 672/464/468 673/444/450 670/443/466
f 672/464/468 674/465/469 673/444/450
f 675/466/470 673/444/450 674/465/469
f 675/466/470 676/445/451 673/444/450
f 675/466/470 677/446/471 676/445/451
f 675/466/470 678/467/472 677/446/471
f 678/467/472 679/447/454 677/446/471
f 678/467/472 680/468/473 679/447/454
f 680/468/473 681/448/455 679/447/454
f 680/468/473 682/469/474 681/448/455
f 683/470/475 684/464/468 685/463/476
f 683/470/475 686/471/477 684/464/468
f 686/471/477 687/465/469 684/464/468
f 686/471/477 688/472/478 687/465/469
f 689/473/479 687/465/469 688/472/478
f 689/473/479 690/466/480 687/465/469
f 689/473/479 691/467/481 690/466/480
f 689/473/479 692/474/482 691/467/481
f 692/474/482 693/468/483 691/467/481
f 692/474/482 694/475/484 693/468/483
f 694/475/484 695/469/485 693/468/483
f 694/475/484 696/476/486 695/469/485
f 697/451/457 698/471/487 699/470/475
f 697/451/457 700/450/456 698/471/487
f 700/450/456 701/472/488 698/471/487
f 700/450/456 702/453/458 701/472/488
f 703/456/460 701/472/488 702/453/458
f 703/456/460 704/473/489 701/472/488
f 703/456/460 705/474/490 704/473/489
f 703/456/460 706/457/491 705/474/490
f 706/457/491 707/475/492 705/474/490
f 706/457/491 708/459/462 707/475/492
f 708/459/462 709/476/4 707/475/492
f 708/459/462 710/461/493 709/476/4
f 711/6/457 712/2/494 713/8/437
f 713/8/437 712/2/494 714/9/495
f 714/9/495 712/2/494 715/7/496
f 715/7/496 712/2/494 716/5/447
f 717/4/497 712/2/494 718/6/498
f 719/3/465 712/2/494 717/4/497
f 720/1/499 712/2/494 719/3/465
f 721/5/447 712/2/494 720/1/499
